<svg width="591" height="520" viewBox="0 0 591 520" fill="none" xmlns="http://www.w3.org/2000/svg">
<path d="M534.054 400.541L505.946 428.649H56.2162L84.3243 400.541H534.054Z" stroke="#2A263C" stroke-miterlimit="10" stroke-linecap="round" stroke-linejoin="round"/>
<path d="M7.46622 512.973H555.574L506.385 428.649H56.6554L7.46622 512.973Z" stroke="#2A263C" stroke-miterlimit="10" stroke-linecap="round" stroke-linejoin="round"/>
<path d="M505.946 428.649L534.054 400.541L583.243 484.865L555.135 512.973L505.946 428.649Z" stroke="#2A263C" stroke-miterlimit="10" stroke-linecap="round" stroke-linejoin="round"/>
<path d="M581.486 484.865H36.0135" stroke="#2A263C" stroke-linecap="round" stroke-linejoin="round"/>
<path d="M8.2571 511.742L34.5206 485.479" stroke="#2A263C" stroke-linecap="round" stroke-linejoin="round"/>
<path d="M83.4459 402.033L35.5743 484.074" stroke="#2A263C" stroke-linecap="round" stroke-linejoin="round"/>
<path d="M477.838 302.162L449.73 330.27H112.432L140.541 302.162H477.838Z" stroke="#2A263C" stroke-miterlimit="10" stroke-linecap="round" stroke-linejoin="round"/>
<path d="M63.2432 414.595H498.919L449.73 330.27H112.432L63.2432 414.595Z" stroke="#2A263C" stroke-miterlimit="10" stroke-linecap="round" stroke-linejoin="round"/>
<path d="M449.73 330.27L477.838 302.162L527.027 386.486L498.919 414.595L449.73 330.27Z" stroke="#2A263C" stroke-miterlimit="10" stroke-linecap="round" stroke-linejoin="round"/>
<path d="M525.27 386.486H92.2297" stroke="#2A263C" stroke-linecap="round" stroke-linejoin="round"/>
<path d="M64.4733 413.364L90.7368 387.101" stroke="#2A263C" stroke-linecap="round" stroke-linejoin="round"/>
<path d="M139.662 303.655L91.7905 385.695" stroke="#2A263C" stroke-linecap="round" stroke-linejoin="round"/>
<path d="M421.622 203.784L393.514 231.892H168.649L196.757 203.784H421.622Z" stroke="#2A263C" stroke-miterlimit="10" stroke-linecap="round" stroke-linejoin="round"/>
<path d="M119.459 316.216H442.703L393.514 231.892H168.649L119.459 316.216Z" stroke="#2A263C" stroke-miterlimit="10" stroke-linecap="round" stroke-linejoin="round"/>
<path d="M195.878 205.276L148.007 287.317" stroke="#2A263C" stroke-linecap="round" stroke-linejoin="round"/>
<path d="M393.514 231.892L421.622 203.784L470.811 288.108L442.703 316.216L393.514 231.892Z" stroke="#2A263C" stroke-miterlimit="10" stroke-linecap="round" stroke-linejoin="round"/>
<path d="M469.054 288.108H148.446" stroke="#2A263C" stroke-linecap="round" stroke-linejoin="round"/>
<path d="M120.69 314.986L146.953 288.722" stroke="#2A263C" stroke-linecap="round" stroke-linejoin="round"/>
<path d="M365.405 105.405L337.297 133.514H224.865L252.973 105.405H365.405Z" stroke="#2A263C" stroke-miterlimit="10" stroke-linecap="round" stroke-linejoin="round"/>
<path d="M175.676 217.838H386.486L337.297 133.514H224.865L175.676 217.838Z" stroke="#2A263C" stroke-miterlimit="10" stroke-linecap="round" stroke-linejoin="round"/>
<path d="M337.297 133.514L365.405 105.405L414.595 189.73L386.486 217.838L337.297 133.514Z" stroke="#2A263C" stroke-miterlimit="10" stroke-linecap="round" stroke-linejoin="round"/>
<path d="M412.838 189.73H204.662" stroke="#2A263C" stroke-linecap="round" stroke-linejoin="round"/>
<path d="M176.906 216.607L203.169 190.344" stroke="#2A263C" stroke-linecap="round" stroke-linejoin="round"/>
<path d="M252.095 106.898L204.223 188.938" stroke="#2A263C" stroke-linecap="round" stroke-linejoin="round"/>
<path d="M231.892 119.459H330.27L281.081 35.1351L231.892 119.459Z" fill="#A5250A" stroke="#2A263C" stroke-miterlimit="10" stroke-linecap="round" stroke-linejoin="round"/>
<path d="M281.081 35.1351L309.189 7.02704L358.378 91.3514L330.27 119.459L281.081 35.1351Z" fill="#A5250A" stroke="#2A263C" stroke-miterlimit="10" stroke-linecap="round" stroke-linejoin="round"/>
<path d="M356.622 91.3513H260.878" stroke="#2A263C" stroke-linecap="round" stroke-linejoin="round"/>
<path d="M233.122 118.229L259.385 91.9655" stroke="#2A263C" stroke-linecap="round" stroke-linejoin="round"/>
<path d="M308.311 8.51959L260.439 90.5601" stroke="#2A263C" stroke-linecap="round" stroke-linejoin="round"/>
<path d="M7.02703 514.73C7.99726 514.73 8.78378 513.943 8.78378 512.973C8.78378 512.003 7.99726 511.216 7.02703 511.216C6.0568 511.216 5.27027 512.003 5.27027 512.973C5.27027 513.943 6.0568 514.73 7.02703 514.73Z" fill="#2A263C"/>
<path d="M555.135 514.73C556.105 514.73 556.892 513.943 556.892 512.973C556.892 512.003 556.105 511.216 555.135 511.216C554.165 511.216 553.378 512.003 553.378 512.973C553.378 513.943 554.165 514.73 555.135 514.73Z" fill="#2A263C"/>
<path d="M583.243 486.622C584.213 486.622 585 485.835 585 484.865C585 483.895 584.213 483.108 583.243 483.108C582.273 483.108 581.487 483.895 581.487 484.865C581.487 485.835 582.273 486.622 583.243 486.622Z" fill="#2A263C"/>
<path d="M505.946 430.405C506.916 430.405 507.703 429.619 507.703 428.649C507.703 427.678 506.916 426.892 505.946 426.892C504.976 426.892 504.189 427.678 504.189 428.649C504.189 429.619 504.976 430.405 505.946 430.405Z" fill="#2A263C"/>
<path d="M534.054 402.297C535.024 402.297 535.811 401.511 535.811 400.541C535.811 399.57 535.024 398.784 534.054 398.784C533.084 398.784 532.297 399.57 532.297 400.541C532.297 401.511 533.084 402.297 534.054 402.297Z" fill="#2A263C"/>
<path d="M498.919 416.351C499.889 416.351 500.676 415.565 500.676 414.595C500.676 413.624 499.889 412.838 498.919 412.838C497.949 412.838 497.162 413.624 497.162 414.595C497.162 415.565 497.949 416.351 498.919 416.351Z" fill="#2A263C"/>
<path d="M527.027 388.243C527.997 388.243 528.784 387.457 528.784 386.486C528.784 385.516 527.997 384.73 527.027 384.73C526.057 384.73 525.27 385.516 525.27 386.486C525.27 387.457 526.057 388.243 527.027 388.243Z" fill="#2A263C"/>
<path d="M449.73 332.027C450.7 332.027 451.486 331.241 451.486 330.27C451.486 329.3 450.7 328.514 449.73 328.514C448.759 328.514 447.973 329.3 447.973 330.27C447.973 331.241 448.759 332.027 449.73 332.027Z" fill="#2A263C"/>
<path d="M477.838 303.919C478.808 303.919 479.595 303.132 479.595 302.162C479.595 301.192 478.808 300.405 477.838 300.405C476.868 300.405 476.081 301.192 476.081 302.162C476.081 303.132 476.868 303.919 477.838 303.919Z" fill="#2A263C"/>
<path d="M442.703 317.973C443.673 317.973 444.459 317.186 444.459 316.216C444.459 315.246 443.673 314.459 442.703 314.459C441.732 314.459 440.946 315.246 440.946 316.216C440.946 317.186 441.732 317.973 442.703 317.973Z" fill="#2A263C"/>
<path d="M470.811 289.865C471.781 289.865 472.568 289.078 472.568 288.108C472.568 287.138 471.781 286.351 470.811 286.351C469.841 286.351 469.054 287.138 469.054 288.108C469.054 289.078 469.841 289.865 470.811 289.865Z" fill="#2A263C"/>
<path d="M393.514 233.649C394.484 233.649 395.27 232.862 395.27 231.892C395.27 230.922 394.484 230.135 393.514 230.135C392.543 230.135 391.757 230.922 391.757 231.892C391.757 232.862 392.543 233.649 393.514 233.649Z" fill="#2A263C"/>
<path d="M421.622 205.541C422.592 205.541 423.378 204.754 423.378 203.784C423.378 202.814 422.592 202.027 421.622 202.027C420.651 202.027 419.865 202.814 419.865 203.784C419.865 204.754 420.651 205.541 421.622 205.541Z" fill="#2A263C"/>
<path d="M386.486 219.595C387.457 219.595 388.243 218.808 388.243 217.838C388.243 216.868 387.457 216.081 386.486 216.081C385.516 216.081 384.73 216.868 384.73 217.838C384.73 218.808 385.516 219.595 386.486 219.595Z" fill="#2A263C"/>
<path d="M414.595 191.486C415.565 191.486 416.351 190.7 416.351 189.73C416.351 188.759 415.565 187.973 414.595 187.973C413.624 187.973 412.838 188.759 412.838 189.73C412.838 190.7 413.624 191.486 414.595 191.486Z" fill="#2A263C"/>
<path d="M337.297 135.27C338.268 135.27 339.054 134.484 339.054 133.514C339.054 132.543 338.268 131.757 337.297 131.757C336.327 131.757 335.541 132.543 335.541 133.514C335.541 134.484 336.327 135.27 337.297 135.27Z" fill="#2A263C"/>
<path d="M365.405 107.162C366.376 107.162 367.162 106.376 367.162 105.405C367.162 104.435 366.376 103.649 365.405 103.649C364.435 103.649 363.649 104.435 363.649 105.405C363.649 106.376 364.435 107.162 365.405 107.162Z" fill="#2A263C"/>
<path d="M330.27 121.216C331.241 121.216 332.027 120.43 332.027 119.459C332.027 118.489 331.241 117.703 330.27 117.703C329.3 117.703 328.514 118.489 328.514 119.459C328.514 120.43 329.3 121.216 330.27 121.216Z" fill="#2A263C"/>
<path d="M358.378 93.1081C359.349 93.1081 360.135 92.3216 360.135 91.3514C360.135 90.3811 359.349 89.5946 358.378 89.5946C357.408 89.5946 356.622 90.3811 356.622 91.3514C356.622 92.3216 357.408 93.1081 358.378 93.1081Z" fill="#2A263C"/>
<path d="M281.081 36.8919C282.051 36.8919 282.838 36.1053 282.838 35.1351C282.838 34.1649 282.051 33.3784 281.081 33.3784C280.111 33.3784 279.324 34.1649 279.324 35.1351C279.324 36.1053 280.111 36.8919 281.081 36.8919Z" fill="#2A263C"/>
<path d="M231.892 121.216C232.862 121.216 233.649 120.43 233.649 119.459C233.649 118.489 232.862 117.703 231.892 117.703C230.922 117.703 230.135 118.489 230.135 119.459C230.135 120.43 230.922 121.216 231.892 121.216Z" fill="#2A263C"/>
<path d="M224.865 135.27C225.835 135.27 226.622 134.484 226.622 133.514C226.622 132.543 225.835 131.757 224.865 131.757C223.895 131.757 223.108 132.543 223.108 133.514C223.108 134.484 223.895 135.27 224.865 135.27Z" fill="#2A263C"/>
<path d="M175.676 219.595C176.646 219.595 177.432 218.808 177.432 217.838C177.432 216.868 176.646 216.081 175.676 216.081C174.705 216.081 173.919 216.868 173.919 217.838C173.919 218.808 174.705 219.595 175.676 219.595Z" fill="#2A263C"/>
<path d="M168.649 233.649C169.619 233.649 170.405 232.862 170.405 231.892C170.405 230.922 169.619 230.135 168.649 230.135C167.678 230.135 166.892 230.922 166.892 231.892C166.892 232.862 167.678 233.649 168.649 233.649Z" fill="#2A263C"/>
<path d="M119.459 317.973C120.43 317.973 121.216 317.186 121.216 316.216C121.216 315.246 120.43 314.459 119.459 314.459C118.489 314.459 117.703 315.246 117.703 316.216C117.703 317.186 118.489 317.973 119.459 317.973Z" fill="#2A263C"/>
<path d="M112.432 332.027C113.403 332.027 114.189 331.241 114.189 330.27C114.189 329.3 113.403 328.514 112.432 328.514C111.462 328.514 110.676 329.3 110.676 330.27C110.676 331.241 111.462 332.027 112.432 332.027Z" fill="#2A263C"/>
<path d="M63.2432 416.351C64.2135 416.351 65 415.565 65 414.595C65 413.624 64.2135 412.838 63.2432 412.838C62.273 412.838 61.4865 413.624 61.4865 414.595C61.4865 415.565 62.273 416.351 63.2432 416.351Z" fill="#2A263C"/>
<path d="M56.2162 430.405C57.1864 430.405 57.973 429.619 57.973 428.649C57.973 427.678 57.1864 426.892 56.2162 426.892C55.246 426.892 54.4595 427.678 54.4595 428.649C54.4595 429.619 55.246 430.405 56.2162 430.405Z" fill="#2A263C"/>
<path d="M7.02703 514.73C7.99726 514.73 8.78378 513.943 8.78378 512.973C8.78378 512.003 7.99726 511.216 7.02703 511.216C6.0568 511.216 5.27027 512.003 5.27027 512.973C5.27027 513.943 6.0568 514.73 7.02703 514.73Z" fill="#2A263C"/>
<path d="M309.189 8.78378C310.159 8.78378 310.946 7.99725 310.946 7.02702C310.946 6.05679 310.159 5.27026 309.189 5.27026C308.219 5.27026 307.432 6.05679 307.432 7.02702C307.432 7.99725 308.219 8.78378 309.189 8.78378Z" fill="#2A263C"/>
</svg>
