<svg width="390" height="281" viewBox="0 0 390 281" fill="none" xmlns="http://www.w3.org/2000/svg">
<path d="M206.979 94.9502L24 187.714L206.979 280.434L390 187.714L206.979 94.9502Z" fill="url(#paint0_linear_4_130)" fill-opacity="0.2"/>
<path d="M240.746 14.168C242.63 14.168 243.902 12.56 243.902 9.488C243.902 6.428 242.63 4.904 240.746 4.904C238.862 4.904 237.578 6.416 237.578 9.488C237.578 12.56 238.862 14.168 240.746 14.168ZM240.746 12.512C240.11 12.512 239.594 11.936 239.594 9.488C239.594 7.052 240.11 6.536 240.746 6.536C241.382 6.536 241.886 7.052 241.886 9.488C241.886 11.936 241.382 12.512 240.746 12.512ZM246.51 14.168C247.242 14.168 247.782 13.58 247.782 12.836C247.782 12.092 247.242 11.516 246.51 11.516C245.766 11.516 245.238 12.092 245.238 12.836C245.238 13.58 245.766 14.168 246.51 14.168ZM251.953 14.168C253.729 14.168 255.253 13.232 255.253 11.564C255.253 10.412 254.521 9.692 253.537 9.392V9.332C254.485 8.948 254.965 8.252 254.965 7.364C254.965 5.768 253.753 4.904 251.905 4.904C250.849 4.904 249.961 5.312 249.133 6.008L250.213 7.316C250.753 6.836 251.209 6.572 251.809 6.572C252.469 6.572 252.829 6.908 252.829 7.52C252.829 8.228 252.349 8.684 250.825 8.684V10.196C252.697 10.196 253.105 10.652 253.105 11.42C253.105 12.092 252.565 12.44 251.737 12.44C251.041 12.44 250.417 12.08 249.877 11.576L248.893 12.92C249.541 13.676 250.537 14.168 251.953 14.168ZM258.51 10.58C259.818 10.58 260.778 9.512 260.778 7.724C260.778 5.936 259.818 4.904 258.51 4.904C257.202 4.904 256.254 5.936 256.254 7.724C256.254 9.512 257.202 10.58 258.51 10.58ZM258.51 9.404C258.09 9.404 257.73 8.972 257.73 7.724C257.73 6.476 258.09 6.08 258.51 6.08C258.93 6.08 259.29 6.476 259.29 7.724C259.29 8.972 258.93 9.404 258.51 9.404ZM258.822 14.168H260.046L264.858 4.904H263.634L258.822 14.168ZM265.158 14.168C266.454 14.168 267.414 13.1 267.414 11.312C267.414 9.524 266.454 8.48 265.158 8.48C263.862 8.48 262.902 9.524 262.902 11.312C262.902 13.1 263.862 14.168 265.158 14.168ZM265.158 12.98C264.738 12.98 264.378 12.56 264.378 11.312C264.378 10.052 264.738 9.668 265.158 9.668C265.578 9.668 265.938 10.052 265.938 11.312C265.938 12.56 265.578 12.98 265.158 12.98Z" fill="#A5250A"/>
<path d="M243.159 35.8324C243.219 35.4724 243.243 35.1004 243.243 34.6804C243.243 34.2604 243.219 33.8764 243.159 33.5164H244.407V35.8324H243.159ZM240.915 37.3564C240.171 37.3564 239.703 36.3964 239.703 34.6804C239.703 32.9644 240.171 31.9924 240.915 31.9924C241.659 31.9924 242.127 32.9644 242.127 34.6804C242.127 36.3964 241.659 37.3564 240.915 37.3564ZM244.407 32.4964H242.907C242.535 31.4284 241.815 30.8284 240.915 30.8284C239.511 30.8284 238.587 32.2924 238.587 34.6804C238.587 37.0564 239.511 38.5204 240.915 38.5204C241.827 38.5204 242.535 37.8964 242.919 36.8404H244.407V40.3084H245.559V30.1924H244.407V32.4964ZM246.555 29.9884V40.8124H247.731V29.9884H246.555ZM257.186 29.9764V40.8484H258.434V29.9764H257.186ZM250.094 30.8764V38.2684H255.302V30.8764H254.066V33.6364H251.318V30.8764H250.094ZM251.318 34.6204H254.066V37.2724H251.318V34.6204ZM268.137 31.3804C269.685 31.3804 270.705 31.9084 270.705 32.7724C270.705 33.6484 269.685 34.1764 268.137 34.1764C266.577 34.1764 265.557 33.6484 265.557 32.7724C265.557 31.9084 266.577 31.3804 268.137 31.3804ZM268.137 35.1724C270.417 35.1724 271.977 34.2364 271.977 32.7724C271.977 31.3204 270.417 30.3844 268.137 30.3844C265.845 30.3844 264.285 31.3204 264.285 32.7724C264.285 34.2364 265.845 35.1724 268.137 35.1724ZM273.069 36.0964H263.241V37.1164H265.641V40.8244H266.901V37.1164H269.373V40.8244H270.633V37.1164H273.081L273.069 36.0964ZM276.152 31.0444H274.928V38.0884H275.852C277.532 38.0884 279.284 37.9564 281.144 37.5724L281.012 36.5404C279.308 36.8884 277.688 37.0204 276.152 37.0324V31.0444ZM282.008 29.9884V40.8244H283.244V29.9884H282.008ZM286.195 32.6404L286.363 33.6604L292.651 33.3844C292.603 33.8524 292.543 34.3564 292.423 34.9084L293.647 35.0044C293.947 33.5524 293.947 32.4484 293.947 31.4284V30.4564H286.471V31.4524H292.723C292.723 31.7884 292.723 32.1244 292.711 32.4604L286.195 32.6404ZM287.779 37.4644H286.543V40.6564H294.151V39.6604H287.779V37.4644ZM290.407 35.6404V34.1884H289.159V35.6404H285.343V36.6364H295.111V35.6404H290.407ZM299.677 31.1284V32.1364H303.541C303.325 34.6324 301.981 36.5404 299.137 37.9084L299.797 38.8924C303.517 37.0924 304.813 34.3564 304.813 31.1284H299.677ZM306.769 29.9884V40.8244H308.005V29.9884H306.769ZM317.856 39.6964H313.26V38.4964H317.856V39.6964ZM317.856 37.5364H313.26V36.3124H312.036V40.6924H319.08V36.3124H317.856V37.5364ZM313.08 34.5244C312.12 34.5244 311.436 33.9124 311.436 33.0004C311.436 32.0764 312.12 31.4884 313.08 31.4884C314.016 31.4884 314.712 32.0764 314.712 33.0004C314.712 33.9124 314.016 34.5244 313.08 34.5244ZM317.844 29.9884V32.4844H315.84C315.6 31.2724 314.508 30.4684 313.08 30.4684C311.448 30.4684 310.248 31.5124 310.248 33.0004C310.248 34.5004 311.448 35.5444 313.08 35.5444C314.52 35.5444 315.624 34.7164 315.84 33.4924H317.844V35.7964H319.08V29.9884H317.844Z" fill="#403D50"/>
<path d="M207.317 119.64L103.859 171.381L207.317 223.098L310.799 171.381L207.317 119.64Z" fill="url(#paint1_linear_4_130)"/>
<path d="M207.32 254.147V223.098L310.802 171.381V202.406L207.32 254.147Z" fill="#000D19"/>
<path d="M103.859 171.381V202.407L207.317 254.148V223.098L103.859 171.381Z" fill="#1D2936"/>
<path d="M207.317 98.9485L124.551 140.332L207.317 181.715L290.108 140.332L207.317 98.9485Z" fill="url(#paint2_linear_4_130)"/>
<path d="M207.32 212.765V181.715L290.111 140.332V171.381L207.32 212.765Z" fill="#000D19"/>
<path d="M124.551 140.332V171.381L207.317 212.764V181.715L124.551 140.332Z" fill="#1D2936"/>
<path d="M207.317 78.2329L145.242 109.282L207.317 140.332L269.416 109.282L207.317 78.2329Z" fill="url(#paint3_linear_4_130)"/>
<path d="M207.32 171.382V140.333L269.419 109.283V140.333L207.32 171.382Z" fill="#000D19"/>
<path d="M145.242 109.282V140.332L207.317 171.381V140.332L145.242 109.282Z" fill="#1D2936"/>
<path d="M165.938 78.2326L207.321 57.541L248.728 78.2326L207.321 98.9483L165.938 78.2326Z" fill="url(#paint4_linear_4_130)"/>
<path d="M207.32 129.973V98.9482L248.728 78.2324V109.282L207.32 129.973Z" fill="#000D19"/>
<path d="M165.938 78.2324V109.282L207.321 129.973V98.9482L165.938 78.2324Z" fill="#1D2936"/>
<path d="M207.32 88.5902V57.5408L228.012 47.207V78.2324L207.32 88.5902Z" fill="#000D19"/>
<path opacity="0.5" d="M207.32 98.9482V88.5903L228.012 78.2324V88.5903L207.32 98.9482Z" fill="#000D19"/>
<path opacity="0.25" d="M186.625 78.2329V88.5908L207.317 98.9487V88.5908L186.625 78.2329Z" fill="#1D2936"/>
<path opacity="0.5" d="M207.32 140.333V129.975L248.728 109.283V119.641L207.32 140.333Z" fill="#000D19"/>
<path opacity="0.25" d="M165.938 109.283V119.641L207.321 140.333V129.975L165.938 109.283Z" fill="#1D2936"/>
<path opacity="0.5" d="M207.32 181.715V171.381L269.419 140.332V150.666L207.32 181.715Z" fill="#000D19"/>
<path opacity="0.25" d="M145.242 140.332V150.666L207.317 181.715V171.381L145.242 140.332Z" fill="#1D2936"/>
<path opacity="0.5" d="M207.32 223.098V212.764L290.111 171.381V181.715L207.32 223.098Z" fill="#000D19"/>
<path opacity="0.25" d="M124.551 171.381V181.715L207.317 223.098V212.765L124.551 171.381Z" fill="#1D2936"/>
<path d="M207.317 57.5412L186.625 47.2075L207.317 36.8496L228.008 47.2075L207.317 57.5412Z" fill="url(#paint5_linear_4_130)"/>
<path d="M186.625 47.2078V78.2331L207.317 88.591V57.5415L186.625 47.2078Z" fill="#1D2936"/>
<path opacity="0.5" d="M207.317 36.8496L186.625 47.2075L207.317 57.5412L228.008 47.2075L207.317 36.8496Z" fill="url(#paint6_radial_4_130)"/>
<path d="M219.386 34.5799C219.386 41.2437 213.977 46.652 207.314 46.652C200.65 46.652 195.242 41.2437 195.242 34.5799C195.242 27.9161 200.65 22.5078 207.314 22.5078C213.977 22.5078 219.386 27.9161 219.386 34.5799Z" fill="url(#paint7_linear_4_130)"/>
<path d="M207.314 21.9766C200.361 21.9766 194.711 27.6263 194.711 34.5798C194.711 41.5334 200.361 47.1831 207.314 47.1831C214.268 47.1831 219.918 41.5334 219.918 34.5798C219.942 27.6263 214.292 21.9766 207.314 21.9766ZM200.071 43.6822C200.071 43.5132 200.071 43.3201 200.071 43.151C200.047 42.982 199.926 42.813 199.902 42.6682C199.878 42.5474 199.926 42.5233 199.902 42.4026C199.757 42.4026 199.83 41.6058 199.83 41.461C199.564 41.461 199.685 41.2919 199.661 41.0505C199.612 40.7125 199.516 40.5435 199.274 40.2779C198.985 39.9399 198.55 39.8674 198.309 39.457C198.067 39.0707 197.946 38.4912 197.608 38.1532C197.488 38.0325 197.222 37.6945 197.294 37.4772C197.319 37.453 197.536 37.3081 197.536 37.3081C197.512 37.2599 197.681 37.1874 197.584 37.1391C197.488 37.0908 197.488 36.8253 197.488 36.7287C197.512 36.5597 197.632 36.4148 197.729 36.2699C197.753 36.2458 197.874 36.0285 197.874 36.0285C198.26 35.9078 197.922 35.2317 197.922 35.0144C197.922 34.8937 197.898 34.773 197.753 34.7489C197.56 34.7247 197.632 35.0386 197.439 34.9903C197.343 34.9662 197.27 34.8454 197.174 34.8213C197.101 34.8213 197.029 34.8213 196.981 34.8213C196.884 34.773 196.932 34.7006 196.812 34.6523C196.57 34.5316 196.522 34.1935 196.377 34.0004C196.232 33.7831 195.894 33.8555 195.701 33.7107C195.725 33.3485 195.773 32.9863 195.821 32.6483C195.87 32.6242 195.918 32.6 195.942 32.5759C196.039 32.4552 196.063 32.2861 196.232 32.2137C196.353 32.1413 196.546 32.1171 196.691 32.1654C196.787 32.1896 196.836 32.4069 196.812 32.3827C196.908 32.5276 196.377 33.0829 196.57 33.1795C196.57 33.1795 197.512 33.3243 197.198 33.5175C197.246 33.7831 197.101 34.1211 197.198 34.3625C197.367 34.7971 197.729 34.435 197.97 34.604C198.139 34.8696 198.357 34.3625 198.405 34.3867C198.381 34.2177 198.888 34.097 198.96 34.1211C199.25 33.9521 199.805 34.3384 200.119 34.3384C200.409 34.3384 200.554 34.266 200.771 34.4833C200.892 34.604 200.988 34.7971 201.182 34.8454C201.351 34.8696 201.399 35.1593 201.544 35.2559C201.713 35.3525 201.882 35.3283 202.075 35.3525C202.437 35.5698 202.606 35.8595 202.751 36.2458C202.823 36.4872 202.775 36.439 203.041 36.5355C203.137 36.5838 203.137 36.6563 203.258 36.6804C203.331 36.7045 203.379 36.7287 203.451 36.777C203.668 36.9701 203.741 37.1391 204.055 37.1874C204.296 37.2116 204.417 37.2599 204.586 37.3806C204.683 37.453 204.924 37.622 205.069 37.622C205.359 37.622 205.358 38.3463 205.238 38.5154C205.141 38.6361 205.069 38.7085 204.972 38.8292C204.9 38.9017 204.9 39.0465 204.852 39.119C204.61 39.3604 204.755 39.795 204.707 40.1089C204.658 40.4227 204.61 41.1229 204.248 41.2678C204.006 41.3644 203.451 41.3885 203.427 41.7748C203.403 42.0163 203.62 42.137 203.451 42.3784C203.282 42.5957 203.331 42.644 203.258 42.8855C203.234 42.9579 203.065 43.2235 203.017 43.2718C202.848 43.4166 202.63 43.4408 202.485 43.5615C202.437 43.5615 202.582 43.7788 202.606 43.7788C202.703 43.8271 202.558 44.0444 202.509 44.0927C202.437 44.1651 202.365 44.1892 202.268 44.1892C202.171 44.1892 202.099 44.1892 202.003 44.2134C201.978 44.2134 201.93 44.2134 201.906 44.2375C201.882 44.2617 201.882 44.31 201.882 44.3341C201.882 44.3583 201.882 44.3583 201.882 44.3824C201.882 44.4065 201.858 44.4548 201.858 44.479C201.858 44.5031 201.833 44.5273 201.833 44.5514C201.833 44.5756 201.906 44.5997 201.882 44.6238C201.858 44.648 201.834 44.6721 201.809 44.6721C201.761 44.6963 201.737 44.7204 201.689 44.7446C201.133 44.479 200.578 44.0927 200.071 43.6822ZM197.343 31.9481C197.729 31.6343 198.067 31.9723 198.453 32.1171H198.477C198.526 32.1413 199.009 32.4552 198.815 32.4552C198.695 32.4552 198.55 32.4793 198.429 32.431C198.309 32.4069 198.236 32.262 198.212 32.1654C198.188 32.093 197.995 32.093 197.946 32.0688C197.826 32.0206 197.657 31.924 197.536 31.9481C197.488 31.9964 197.439 32.0206 197.391 32.0447C197.198 32.0447 197.294 31.9723 197.343 31.9481ZM198.864 32.769C198.864 32.7449 198.888 32.7207 198.912 32.7207C199.009 32.5276 198.864 32.5759 199.154 32.4552C199.298 32.4069 199.781 32.5034 199.781 32.7207C199.805 32.8656 198.912 32.9139 198.864 32.769ZM207.314 22.9423C207.918 22.9423 208.521 22.9906 209.077 23.0872C209.125 23.1113 209.173 23.1355 209.197 23.1596C209.415 23.3528 209.149 23.4735 209.028 23.6425C208.956 23.7149 208.715 23.8115 208.691 23.9081C208.594 24.0288 208.618 24.1013 208.449 24.1978C208.208 24.3427 207.942 24.391 207.676 24.4151H207.652H207.628H207.604C207.338 24.4393 207.145 24.6324 206.904 24.6807C206.711 24.729 206.517 24.7531 206.324 24.8256C206.3 24.8014 206.3 24.7773 206.3 24.7531C206.155 24.7531 205.962 25.0187 205.89 25.1153C205.721 25.3085 205.648 25.405 205.383 25.3568C205.165 25.3326 204.731 25.1636 204.731 24.8739C204.731 24.8014 204.683 24.4151 204.779 24.391C204.707 24.2703 204.948 24.0288 204.9 23.8357C204.827 23.5701 204.079 23.6425 203.837 23.4494C204.924 23.1355 206.107 22.9423 207.314 22.9423ZM209.101 24.8256C208.932 24.898 208.546 25.0187 208.401 24.8497C208.377 24.8256 208.304 24.5841 208.425 24.5841C208.473 24.5359 208.521 24.5359 208.594 24.5359C208.618 24.5359 208.642 24.5359 208.666 24.5359C208.859 24.4876 209.318 24.4151 209.391 24.5359C209.511 24.729 209.222 24.7773 209.101 24.8256ZM217.624 39.6501C217.334 39.4087 217.648 38.95 217.745 38.7085C217.817 38.5636 217.72 37.7669 218.058 37.8152C218.324 37.8635 218.421 37.5496 218.493 37.4047C218.493 37.4047 218.565 37.284 218.638 37.2116C218.445 38.0808 218.131 38.9258 217.745 39.7226C217.72 39.7226 217.672 39.6984 217.624 39.6501ZM218.541 31.4411C218.541 31.4411 218.517 31.4411 218.517 31.417C218.42 31.3445 218.01 31.0065 218.082 30.9099C218.01 30.9341 217.72 30.7892 217.72 31.0306C217.72 31.2721 218.155 31.586 218.276 31.8033C218.396 31.755 218.324 31.6343 218.421 31.8274C218.421 31.8274 218.517 32.0688 218.493 32.0447C218.565 32.1171 218.638 32.1171 218.71 32.093C218.831 32.6483 218.904 33.2036 218.952 33.7831C218.904 33.8072 218.855 33.8314 218.783 33.8314C218.807 33.8314 218.638 34.0487 218.638 34.0487C218.42 34.1453 218.179 34.2418 217.962 34.3384C217.793 34.4108 217.189 34.6764 217.793 34.6281C218.034 34.604 218.228 34.5074 218.469 34.4833C218.735 34.4591 218.59 34.604 218.662 34.604C218.662 34.8213 218.662 35.0144 218.565 35.2317C218.517 35.3766 218.372 35.5456 218.396 35.6905C218.445 35.9078 217.962 36.3182 217.865 36.4872C217.72 36.7287 217.382 36.8977 217.213 37.1391C217.044 37.3806 216.924 37.4772 216.827 37.7186C216.779 37.8635 216.755 38.2498 216.634 38.2739C216.875 38.4912 216.586 38.6602 216.634 38.8292C216.706 39.0948 216.779 39.1672 216.803 39.457C216.73 39.457 216.731 40.0123 216.731 40.1089C216.706 40.3262 216.634 40.3503 216.465 40.5193C216.392 40.5918 216.272 40.64 216.199 40.7366C216.199 40.7366 216.03 40.7366 216.006 40.7608C215.813 40.8815 215.692 41.0988 215.547 41.2678C215.523 41.3161 215.644 41.4851 215.644 41.5334C215.644 41.6541 215.62 41.7507 215.62 41.8714C215.571 42.0887 215.402 42.2094 215.185 42.2577C215.064 42.2819 215.04 42.644 215.016 42.7647C214.992 42.8855 214.775 42.982 214.702 43.1028C214.63 43.1993 214.557 43.3925 214.413 43.4408C214.316 43.4649 214.268 43.6581 214.195 43.7305C214.002 43.8995 213.833 44.0202 213.567 44.0202C213.398 44.0202 212.988 44.0685 212.867 44.1892C212.892 44.1651 212.578 44.0927 212.554 44.0927C212.554 44.0202 212.505 43.7064 212.626 43.7064C212.554 43.5374 212.481 43.3925 212.385 43.2476C212.336 43.1752 212.336 43.0062 212.312 42.9096C212.288 42.813 212.264 42.7406 212.24 42.6682C212.167 42.5716 212.24 42.4509 212.215 42.3543C212.095 42.3543 212.143 42.137 212.143 42.0887C212.143 41.8955 212.167 41.799 212.071 41.63C212.022 41.5575 211.974 41.4851 211.974 41.4127C211.974 41.1712 211.805 40.9781 211.781 40.7366C211.757 40.4952 211.853 40.2537 211.877 40.0123C211.877 39.795 212.046 39.7226 212.119 39.5294C212.167 39.4087 212.167 39.2638 212.119 39.1431C212.046 39.1431 212.022 39.119 212.046 39.0465C212.046 38.5395 211.902 38.1532 211.612 37.7427C211.419 37.453 211.298 37.3081 211.419 36.9943C211.467 36.8735 211.515 36.5355 211.515 36.3907C211.515 36.1975 211.274 36.0768 211.129 36.1009C210.863 36.0285 210.912 36.0285 210.743 35.8112C210.525 35.4973 210.115 35.9078 209.898 35.9078C209.825 36.0526 209.439 35.9802 209.318 35.9802C209.149 35.9802 208.98 35.9802 208.787 36.0044C208.69 36.0044 208.642 36.1009 208.521 36.0768C208.256 36.0044 207.966 35.6905 207.749 35.5215C207.507 35.3525 207.411 34.942 207.242 34.7006C207.097 34.4833 206.928 34.1935 206.952 33.928C206.976 33.5658 207.169 33.2761 207.097 32.9139C207.024 32.431 207.073 32.1896 207.314 31.755C207.387 31.6101 207.459 31.3928 207.628 31.3445C207.628 31.3445 207.725 31.1514 207.749 31.1272C207.894 30.9582 208.232 30.9099 208.232 30.6443C208.232 30.427 208.449 30.1132 208.642 30.0166C208.763 29.9442 208.98 29.582 208.859 29.4854C208.642 29.2923 208.473 29.4854 208.401 29.1233C208.377 28.9784 208.401 28.2299 208.594 28.2299C208.859 28.2299 209.149 28.1816 209.415 28.1816C210.067 28.2058 209.173 27.3607 209.197 27.3607C209.222 27.3366 209.463 27.2641 209.511 27.2159C209.608 27.071 209.294 27.071 209.342 26.9986C209.101 26.9986 209.342 26.6847 209.028 26.7813C208.859 26.8296 208.739 26.8296 208.57 26.8296C208.111 26.7571 208.859 26.0569 208.908 26.2984C209.004 26.2501 209.029 26.1535 209.053 26.0811C209.077 26.0086 209.077 25.9845 209.077 26.0086C209.197 25.5258 209.753 26.5398 209.922 26.5157C210.018 26.5157 209.97 26.1535 210.018 26.1052C210.018 26.1052 210.236 26.0086 210.26 26.0086C210.429 26.0569 210.381 25.405 210.453 25.3568C210.67 25.2119 210.96 25.1636 211.177 24.9946C211.419 24.7773 211.684 24.56 212.046 24.4876C212.24 24.4393 212.626 24.3427 212.891 24.3668C215.596 25.8396 217.672 28.3748 218.541 31.4411ZM201.882 24.2944C201.858 24.3186 201.834 24.3186 201.809 24.3186C201.858 24.3186 201.858 24.2944 201.882 24.2944ZM199.371 26.0811C199.443 26.1294 199.516 26.1777 199.588 26.2259C199.709 26.2984 199.661 26.564 199.757 26.6847C200.168 27.1193 200.336 26.3708 200.578 26.2259C200.602 26.2018 201.012 25.9362 200.892 25.9362C200.747 25.7913 200.892 25.5258 200.988 25.4292C201.061 25.3568 201.206 25.0912 201.302 25.0912C201.423 24.9222 201.471 24.7049 201.713 24.6807C201.93 24.6566 202.051 24.6324 202.244 24.4876C202.365 24.391 202.147 24.222 201.978 24.2461C202.244 24.1013 202.534 23.9805 202.823 23.8598C203.137 23.9805 203.741 24.1737 203.62 24.5359C203.524 24.8256 203.161 24.6324 202.992 24.8014C202.799 24.9463 202.872 25.0912 202.582 25.0912C202.292 25.0912 202.027 25.0912 202.147 25.4775C202.244 25.7913 202.534 25.405 202.727 25.4292C202.968 25.4292 203.017 25.9604 203.113 26.1294C203.113 26.1535 203.355 26.2018 203.258 26.2742C203.306 26.3467 203.403 26.2984 203.427 26.395C203.451 26.564 203.379 26.6605 203.355 26.8054C203.33 26.9986 203.644 27.2159 203.306 27.3124C203.041 27.3849 202.799 27.2883 202.92 26.9986C203.041 26.7088 202.703 26.902 202.534 26.8778C202.22 26.8296 201.954 26.902 201.689 27.0468C201.809 27.0227 201.906 27.1193 201.833 27.2641C201.737 27.409 201.978 27.6987 201.858 27.747C201.761 27.7953 201.544 27.747 201.423 27.7953C201.302 27.8436 201.182 27.8919 201.061 27.8919C200.747 27.9402 200.723 28.1092 200.506 28.2782C200.288 28.4472 199.999 28.5679 199.757 28.7369C199.661 28.8094 199.516 28.8335 199.443 28.9301C199.371 29.0267 199.419 29.2198 199.371 29.3406C199.322 29.4854 198.526 30.1856 198.405 30.089C198.429 30.1373 198.236 30.3788 198.212 30.4512C198.115 30.6685 198.164 30.7651 198.212 30.9824C198.284 31.2962 198.043 31.8033 197.801 31.3445C197.681 31.1272 197.801 31.0548 197.801 30.8616C197.801 30.6685 197.584 30.7409 197.488 30.6926C197.27 30.5961 197.053 30.6685 196.836 30.6443C196.86 30.6443 196.642 30.8133 196.594 30.8133C196.498 30.8133 196.401 30.7892 196.329 30.7892C196.981 28.906 198.019 27.3366 199.371 26.0811Z" fill="url(#paint8_linear_4_130)"/>
<path d="M210.694 26.5875C210.766 26.5634 210.959 26.6358 210.935 26.4427C210.911 26.322 210.863 26.1047 210.742 26.1288C210.501 26.1288 210.573 26.4185 210.428 26.5151C210.476 26.5151 210.259 26.6117 210.259 26.6117C210.114 26.6358 210.042 26.7083 210.042 26.8531C209.994 27.0221 210.573 26.6358 210.694 26.5875Z" fill="url(#paint9_linear_4_130)"/>
<path d="M212.168 26.419C212.337 26.419 212.482 26.2741 212.578 26.1051C212.723 25.8878 212.506 25.8878 212.385 25.7188C212.361 25.6946 212.192 25.3083 212.12 25.5498C212.071 25.6946 212.216 25.7429 212.095 25.8636C212.095 26.0327 211.999 26.1534 211.902 26.2741C211.999 26.3707 212.095 26.419 212.168 26.419Z" fill="url(#paint10_linear_4_130)"/>
<path d="M213.446 29.5816C213.229 29.5092 213.132 29.2195 212.963 29.0746C212.819 28.9297 212.794 28.7124 212.65 28.5676C212.432 28.3744 212.094 28.2537 211.829 28.0605C211.805 28.2296 211.829 28.2778 211.925 28.4227C212.022 28.5676 212.239 28.5434 212.287 28.6883C212.36 28.8573 212.432 28.6883 212.432 28.9297C212.432 29.0022 212.408 29.2678 212.287 29.2436C212.263 29.2436 212.143 28.9056 212.046 28.8573C211.901 28.7849 211.756 28.7607 211.636 28.64C211.491 28.5193 211.346 28.2537 211.153 28.2296C210.935 28.2054 210.791 28.3744 210.573 28.3503C210.332 28.3261 210.259 28.5917 210.09 28.7124C209.873 28.8815 209.776 28.978 209.704 29.2436C209.68 29.3643 209.318 29.6541 209.559 29.6782C209.897 29.4851 210.211 29.4126 210.573 29.4126C210.815 29.4126 211.032 29.3402 211.273 29.3885C211.346 29.4609 211.587 29.7265 211.467 29.8472C211.587 29.9438 211.394 30.0645 211.636 30.1611C211.829 30.2335 212.046 30.1852 212.191 30.3301C212.263 30.4025 212.626 30.644 212.819 30.644C212.891 30.644 212.915 30.6198 212.939 30.5474V30.5233C213.06 29.8472 214.098 30.644 214.509 30.5715C214.726 30.5474 214.702 30.5233 214.919 30.5474C215.088 30.5715 215.185 30.6198 215.305 30.4267C215.45 30.1852 215.45 29.8472 215.33 29.5816C215.281 29.6299 214.992 29.7748 214.943 29.7506C214.847 29.6299 214.726 29.5816 214.581 29.6782C214.388 29.7989 213.881 29.4126 213.881 29.2195C213.881 28.8573 213.543 28.7607 213.326 29.0022C213.326 29.0505 213.495 29.2919 213.495 29.2919C213.422 29.3643 213.519 29.5575 213.446 29.5816ZM212.143 29.4851C212.094 29.5092 211.732 29.3402 211.781 29.2678C211.805 29.2195 211.949 29.2436 211.998 29.2436C212.07 29.2436 212.384 29.3885 212.143 29.4851Z" fill="url(#paint11_linear_4_130)"/>
<path d="M214.46 28.7371C214.677 28.7371 214.846 28.5922 215.064 28.6164C215.353 28.6164 215.595 28.8337 215.909 28.7854C216.609 28.6647 215.474 28.3266 215.354 28.1576C215.329 28.1093 215.378 27.9162 215.378 27.8438C215.257 27.9162 215.112 27.9645 214.991 28.061C215.015 28.1576 215.233 28.061 215.233 28.1335C215.233 28.1576 214.871 28.2783 214.822 28.2542C214.822 28.1818 214.702 27.9645 214.629 27.9645C214.146 27.8679 213.832 28.7371 214.46 28.7371Z" fill="url(#paint12_linear_4_130)"/>
<path d="M215.62 31.2723C215.62 31.2723 215.427 31.2965 215.402 31.2723C215.306 31.5379 215.523 31.5621 215.571 31.7552C215.62 31.9484 215.789 32.1898 215.909 32.3347C216.078 32.552 216.078 32.8176 216.175 33.0832C216.175 33.1314 216.392 33.1797 216.441 33.228C216.561 33.3246 216.609 33.5419 216.706 33.6626C216.73 33.7109 216.923 33.9765 216.996 33.9765C217.068 33.8316 216.948 33.6626 217.02 33.4936C217.02 33.4695 216.875 33.2763 216.851 33.2522C216.682 32.9866 216.416 32.7693 216.344 32.4796C216.247 32.1657 215.982 31.8518 215.813 31.5862C215.74 31.4896 215.668 31.3931 215.62 31.2723Z" fill="url(#paint13_linear_4_130)"/>
<g filter="url(#filter0_b_4_130)">
<rect width="124.208" height="35.8824" transform="translate(145.445 177.203)" fill="#F84647" fill-opacity="0.3"/>
</g>
<g filter="url(#filter1_d_4_130)">
<rect x="24.5508" y="59.6199" width="109.303" height="35.3303" rx="8" fill="url(#paint14_linear_4_130)"/>
</g>
<path d="M189.611 32.5703H82.5156V54.0997" stroke="#FFB4B4" stroke-dasharray="5 5 5 5 5 5"/>
<path d="M163.329 186.146V186.816H165.289V189.946H166.119V183.296H165.289V186.146H163.329ZM159.369 184.006V184.676H162.499C162.469 185.046 162.399 185.396 162.279 185.726L158.909 185.876L159.059 186.546L161.979 186.326C161.439 187.186 160.469 187.896 158.959 188.376L159.299 189.036C162.179 188.076 163.349 186.336 163.349 184.006H159.369ZM161.299 191.386V189.286H160.479V192.056H166.379V191.386H161.299ZM174.488 187.926H175.318V183.296H174.488V184.916H172.538V185.586H174.488V187.926ZM173.168 187.096C171.878 186.666 170.968 185.576 170.968 184.406V183.576H170.158V184.406C170.158 185.706 169.268 186.836 167.918 187.296L168.348 187.946C169.398 187.556 170.208 186.776 170.588 185.766C170.978 186.676 171.758 187.386 172.748 187.736L173.168 187.096ZM170.368 191.486V190.526H175.318V188.376H169.538V189.026H174.508V189.906H169.558V192.136H175.658V191.486H170.368ZM184.487 183.296H183.667V188.846H184.487V183.296ZM182.637 187.296C181.387 187.506 180.327 187.546 178.457 187.546V186.376H181.667V185.726H178.457V184.606H181.917V183.946H177.637V188.206H178.367C180.327 188.206 181.417 188.166 182.727 187.946L182.637 187.296ZM181.507 191.606C180.147 191.606 179.317 191.236 179.317 190.616C179.317 189.976 180.147 189.616 181.507 189.616C182.877 189.616 183.707 189.976 183.707 190.616C183.707 191.236 182.877 191.606 181.507 191.606ZM181.507 188.976C179.647 188.976 178.507 189.566 178.507 190.616C178.507 191.656 179.647 192.246 181.507 192.246C183.377 192.246 184.517 191.656 184.517 190.616C184.517 189.566 183.377 188.976 181.507 188.976ZM193.743 187.506C192.453 187.066 191.573 185.946 191.573 184.736V183.746H190.753V184.666C190.753 186.036 189.883 187.256 188.523 187.746L188.953 188.396C190.003 187.996 190.803 187.176 191.173 186.126C191.573 187.046 192.343 187.786 193.313 188.146L193.743 187.506ZM192.673 191.606C191.343 191.606 190.533 191.236 190.533 190.616C190.533 189.986 191.343 189.616 192.673 189.616C193.993 189.616 194.803 189.986 194.803 190.616C194.803 191.236 193.993 191.606 192.673 191.606ZM192.673 188.976C190.843 188.976 189.713 189.566 189.713 190.616C189.713 191.656 190.843 192.246 192.673 192.246C194.493 192.246 195.623 191.656 195.623 190.616C195.623 189.566 194.493 188.976 192.673 188.976ZM195.523 185.606V183.296H194.703V188.726H195.523V186.286H196.853V185.606H195.523ZM202.952 186.886C201.782 187.116 200.762 187.186 198.992 187.186V184.546H202.122V183.886H198.172V187.866H198.872C200.752 187.866 201.812 187.796 203.042 187.546L202.952 186.886ZM199.892 189.496H203.912V191.466H199.892V189.496ZM199.092 192.126H204.722V188.846H199.092V192.126ZM206.052 185.476H204.722V183.276H203.902V188.366H204.722V186.156H206.052V185.476ZM209.871 183.946C208.481 183.946 207.471 184.796 207.471 186.056C207.471 187.306 208.481 188.166 209.871 188.166C211.271 188.166 212.271 187.306 212.271 186.056C212.271 184.796 211.271 183.946 209.871 183.946ZM209.871 184.646C210.801 184.646 211.471 185.216 211.471 186.056C211.471 186.886 210.801 187.466 209.871 187.466C208.951 187.466 208.271 186.886 208.271 186.056C208.271 185.216 208.951 184.646 209.871 184.646ZM213.451 183.286V192.276H214.271V183.286H213.451ZM207.121 190.306C208.741 190.306 210.911 190.286 212.931 189.916L212.861 189.306C210.901 189.606 208.651 189.616 207.021 189.616L207.121 190.306ZM219.55 188.276H221.6V187.626H217.68V186.486H221.35V184.116H216.85V184.766H220.54V185.866H216.88V188.276H218.73V189.796C217.85 189.826 216.99 189.826 216.22 189.826L216.32 190.516C218.02 190.516 220.17 190.476 222.13 190.176L222.07 189.576C221.26 189.676 220.41 189.726 219.55 189.766V188.276ZM222.65 183.276V192.276H223.47V183.276H222.65ZM228.126 184.256V184.916H231.496C231.326 187.046 230.126 188.766 227.716 189.916L228.156 190.586C231.136 189.126 232.326 186.846 232.326 184.256H228.126ZM234.136 183.286V192.256H234.956V183.286H234.136ZM243.365 191.476H239.255V190.316H243.365V191.476ZM243.365 189.676H239.255V188.536H238.445V192.136H244.185V188.536H243.365V189.676ZM239.245 187.176C238.355 187.176 237.715 186.596 237.715 185.776C237.715 184.956 238.355 184.386 239.245 184.386C240.135 184.386 240.775 184.956 240.775 185.776C240.775 186.596 240.135 187.176 239.245 187.176ZM243.355 183.296V185.426H241.525C241.355 184.386 240.455 183.706 239.245 183.706C237.905 183.706 236.935 184.546 236.935 185.776C236.935 187.016 237.905 187.856 239.245 187.856C240.475 187.856 241.375 187.156 241.535 186.096H243.355V188.106H244.185V183.296H243.355ZM255.951 186.706C254.321 186.466 252.721 185.356 252.721 184.106V183.606H251.861V184.106C251.861 185.386 250.281 186.466 248.651 186.706L248.981 187.366C250.381 187.126 251.731 186.356 252.291 185.266C252.871 186.346 254.221 187.126 255.611 187.366L255.951 186.706ZM256.341 188.336H248.241V189.016H251.861V192.266H252.681V189.016H256.351L256.341 188.336ZM180.034 205.516H184.484V204.326H183.094V198.106H182.004C181.534 198.406 181.024 198.596 180.284 198.736V199.646H181.624V204.326H180.034V205.516ZM185.943 207.646C187.153 207.246 187.833 206.356 187.833 205.186C187.833 204.276 187.453 203.736 186.773 203.736C186.253 203.736 185.823 204.076 185.823 204.606C185.823 205.166 186.263 205.476 186.743 205.476C186.773 205.476 186.803 205.476 186.833 205.476C186.843 206.036 186.413 206.556 185.633 206.846L185.943 207.646ZM191.305 205.656C192.815 205.656 193.805 204.336 193.805 201.786C193.805 199.236 192.815 197.976 191.305 197.976C189.795 197.976 188.795 199.226 188.795 201.786C188.795 204.336 189.795 205.656 191.305 205.656ZM191.305 204.506C190.665 204.506 190.185 203.866 190.185 201.786C190.185 199.716 190.665 199.116 191.305 199.116C191.945 199.116 192.415 199.716 192.415 201.786C192.415 203.866 191.945 204.506 191.305 204.506ZM197.194 205.656C198.704 205.656 199.694 204.336 199.694 201.786C199.694 199.236 198.704 197.976 197.194 197.976C195.684 197.976 194.684 199.226 194.684 201.786C194.684 204.336 195.684 205.656 197.194 205.656ZM197.194 204.506C196.554 204.506 196.074 203.866 196.074 201.786C196.074 199.716 196.554 199.116 197.194 199.116C197.834 199.116 198.304 199.716 198.304 201.786C198.304 203.866 197.834 204.506 197.194 204.506ZM203.082 205.656C204.592 205.656 205.582 204.336 205.582 201.786C205.582 199.236 204.592 197.976 203.082 197.976C201.572 197.976 200.572 199.226 200.572 201.786C200.572 204.336 201.572 205.656 203.082 205.656ZM203.082 204.506C202.442 204.506 201.962 203.866 201.962 201.786C201.962 199.716 202.442 199.116 203.082 199.116C203.722 199.116 204.192 199.716 204.192 201.786C204.192 203.866 203.722 204.506 203.082 204.506ZM211.241 199.846V200.916H212.831V203.896H214.151V197.166H212.831V199.846H211.241ZM207.041 197.856V198.906H209.911C209.691 200.256 208.481 201.356 206.561 201.956L207.101 203.016C209.781 202.166 211.321 200.346 211.321 197.856H207.041ZM209.451 205.166V203.236H208.131V206.216H214.381V205.166H209.451ZM224.226 197.156V206.396H225.546V197.156H224.226ZM220.596 197.806C219.206 197.806 218.176 199.066 218.176 201.086C218.176 203.116 219.206 204.386 220.596 204.386C221.986 204.386 223.016 203.116 223.016 201.086C223.016 199.066 221.986 197.806 220.596 197.806ZM220.596 198.996C221.276 198.996 221.746 199.726 221.746 201.086C221.746 202.456 221.276 203.186 220.596 203.186C219.916 203.186 219.446 202.456 219.446 201.086C219.446 199.726 219.916 198.996 220.596 198.996ZM232.545 201.246C231.095 200.796 230.475 199.716 230.475 198.606V197.666H229.135V198.496C229.135 199.746 228.515 200.976 226.975 201.486L227.665 202.526C228.715 202.156 229.425 201.446 229.825 200.546C230.215 201.326 230.885 201.946 231.855 202.266L232.545 201.246ZM231.355 205.356C230.175 205.356 229.545 205.116 229.545 204.596C229.545 204.086 230.175 203.846 231.355 203.846C232.525 203.846 233.155 204.086 233.155 204.596C233.155 205.116 232.525 205.356 231.355 205.356ZM231.355 202.826C229.435 202.826 228.235 203.486 228.235 204.596C228.235 205.716 229.435 206.376 231.355 206.376C233.265 206.376 234.465 205.716 234.465 204.596C234.465 203.486 233.265 202.826 231.355 202.826ZM234.365 199.306V197.176H233.045V202.616H234.365V200.396H235.585V199.306H234.365Z" fill="white"/>
<path d="M52.2494 73.9316H56.2694V73.1716H54.7994V66.5916H54.0994C53.6994 66.8316 53.2294 67.0016 52.5794 67.1216V67.7016H53.8794V73.1716H52.2494V73.9316ZM60.6762 71.0616C61.1562 71.0616 61.6562 70.7616 62.0662 70.0616L61.5462 69.6916C61.2962 70.1716 61.0162 70.3716 60.6962 70.3716C60.0662 70.3716 59.5962 69.4316 58.7162 69.4316C58.2262 69.4316 57.7262 69.7316 57.3162 70.4316L57.8262 70.7916C58.0862 70.3116 58.3662 70.1116 58.6862 70.1116C59.3162 70.1116 59.7962 71.0616 60.6762 71.0616ZM62.9031 73.9316H67.5131V73.1416H65.4831C65.1131 73.1416 64.6631 73.1816 64.2831 73.2116C66.0031 71.5816 67.1531 70.0916 67.1531 68.6316C67.1531 67.3216 66.3331 66.4616 65.0231 66.4616C64.0931 66.4616 63.4631 66.8916 62.8631 67.5416L63.3931 68.0616C63.7931 67.5816 64.3131 67.2116 64.9131 67.2116C65.8231 67.2116 66.2631 67.8216 66.2631 68.6616C66.2631 69.9216 65.2031 71.3816 62.9031 73.3916V73.9316ZM75.39 69.2816C75.62 68.2416 75.62 67.4316 75.62 66.7616V66.1316H69.51V66.7916H74.81C74.81 67.4416 74.81 68.1816 74.59 69.1916L75.39 69.2816ZM72.98 71.2716H72.15V71.6716C72.15 72.8516 70.77 73.7616 69.12 73.9916L69.43 74.6316C70.8 74.4016 72.02 73.7716 72.57 72.8016C73.1 73.7716 74.32 74.4016 75.69 74.6316L76 73.9916C74.36 73.7616 72.98 72.8516 72.98 71.6716V71.2716ZM72.69 69.9016V68.1016H71.87V69.9016H68.56V70.5616H76.64V69.9016H72.69ZM80.6492 66.3616C79.2592 66.3616 78.2492 67.2116 78.2492 68.4716C78.2492 69.7216 79.2592 70.5816 80.6492 70.5816C82.0492 70.5816 83.0492 69.7216 83.0492 68.4716C83.0492 67.2116 82.0492 66.3616 80.6492 66.3616ZM80.6492 67.0616C81.5792 67.0616 82.2492 67.6316 82.2492 68.4716C82.2492 69.3016 81.5792 69.8816 80.6492 69.8816C79.7292 69.8816 79.0492 69.3016 79.0492 68.4716C79.0492 67.6316 79.7292 67.0616 80.6492 67.0616ZM84.2292 65.7016V74.6916H85.0492V65.7016H84.2292ZM77.8992 72.7216C79.5192 72.7216 81.6892 72.7016 83.7092 72.3316L83.6392 71.7216C81.6792 72.0216 79.4292 72.0316 77.7992 72.0316L77.8992 72.7216ZM89.7047 66.6716V67.3316H93.0747C92.9047 69.4616 91.7047 71.1816 89.2947 72.3316L89.7347 73.0016C92.7147 71.5416 93.9047 69.2616 93.9047 66.6716H89.7047ZM95.7147 65.7016V74.6716H96.5347V65.7016H95.7147ZM104.944 73.8916H100.834V72.7316H104.944V73.8916ZM104.944 72.0916H100.834V70.9516H100.024V74.5516H105.764V70.9516H104.944V72.0916ZM100.824 69.5916C99.934 69.5916 99.294 69.0116 99.294 68.1916C99.294 67.3716 99.934 66.8016 100.824 66.8016C101.714 66.8016 102.354 67.3716 102.354 68.1916C102.354 69.0116 101.714 69.5916 100.824 69.5916ZM104.934 65.7116V67.8416H103.104C102.934 66.8016 102.034 66.1216 100.824 66.1216C99.484 66.1216 98.514 66.9616 98.514 68.1916C98.514 69.4316 99.484 70.2716 100.824 70.2716C102.054 70.2716 102.954 69.5716 103.114 68.5116H104.934V70.5216H105.764V65.7116H104.934ZM43.5574 87.9316H48.1674V87.1416H46.1374C45.7674 87.1416 45.3174 87.1816 44.9374 87.2116C46.6574 85.5816 47.8074 84.0916 47.8074 82.6316C47.8074 81.3216 46.9874 80.4616 45.6774 80.4616C44.7474 80.4616 44.1174 80.8916 43.5174 81.5416L44.0474 82.0616C44.4474 81.5816 44.9674 81.2116 45.5674 81.2116C46.4774 81.2116 46.9174 81.8216 46.9174 82.6616C46.9174 83.9216 45.8574 85.3816 43.5574 87.3916V87.9316ZM55.7543 86.3516H56.5843V79.7116H55.7543V80.8716H53.2243V81.5316H55.7543V82.5916H53.2243V83.2416H55.7543V86.3516ZM54.2743 84.0116C52.9343 84.2516 51.7643 84.3216 50.5343 84.3316V80.3516H49.7143V85.0216H50.3943C51.7143 85.0216 52.9243 84.9516 54.3643 84.6916L54.2743 84.0116ZM51.6543 87.8016V85.7816H50.8343V88.4716H56.8143V87.8016H51.6543ZM59.5535 81.2616H62.0635V85.7316H59.5535V81.2616ZM58.7535 86.3916H62.8635V80.6016H58.7535V86.3916ZM66.7735 83.2816H65.2935V79.7116H64.4735V88.6716H65.2935V83.9716H66.7735V83.2816ZM68.7927 81.2416H72.1427V80.5616H67.9727V86.4516H68.6827C70.3727 86.4516 71.5527 86.3916 72.9227 86.1316L72.8327 85.4516C71.5327 85.6816 70.3827 85.7516 68.7927 85.7516V81.2416ZM75.9727 83.2416H74.4927V79.7016H73.6727V88.6916H74.4927V83.9216H75.9727V83.2416ZM79.5583 80.6716V81.3316H82.9283C82.7583 83.4616 81.5583 85.1816 79.1483 86.3316L79.5883 87.0016C82.5683 85.5416 83.7583 83.2616 83.7583 80.6716H79.5583ZM85.5683 79.7016V88.6716H86.3883V79.7016H85.5683ZM94.7975 87.8916H90.6875V86.7316H94.7975V87.8916ZM94.7975 86.0916H90.6875V84.9516H89.8775V88.5516H95.6175V84.9516H94.7975V86.0916ZM90.6775 83.5916C89.7875 83.5916 89.1475 83.0116 89.1475 82.1916C89.1475 81.3716 89.7875 80.8016 90.6775 80.8016C91.5675 80.8016 92.2075 81.3716 92.2075 82.1916C92.2075 83.0116 91.5675 83.5916 90.6775 83.5916ZM94.7875 79.7116V81.8416H92.9575C92.7875 80.8016 91.8875 80.1216 90.6775 80.1216C89.3375 80.1216 88.3675 80.9616 88.3675 82.1916C88.3675 83.4316 89.3375 84.2716 90.6775 84.2716C91.9075 84.2716 92.8075 83.5716 92.9675 82.5116H94.7875V84.5216H95.6175V79.7116H94.7875ZM103.987 86.4116H104.817V79.7116H103.987V81.8116H102.027V82.4916H103.987V86.4116ZM102.667 84.2916C101.377 83.8116 100.497 82.6316 100.497 81.3816V80.2416H99.6767V81.3516C99.6767 82.7216 98.7767 83.9916 97.4367 84.4816L97.8667 85.1316C98.9167 84.7116 99.7167 83.8616 100.097 82.7916C100.477 83.7616 101.247 84.5316 102.237 84.9216L102.667 84.2916ZM99.8667 87.8016V85.6716H99.0467V88.4716H105.027V87.8016H99.8667ZM111.416 82.0316V82.7016H113.186V85.0516H114.016V79.7116H113.186V82.0316H111.416ZM111.916 84.0716C110.616 83.6116 109.736 82.4816 109.736 81.3316V81.0216H111.706V80.3616H106.916V81.0216H108.916V81.3316C108.916 82.6216 107.996 83.8316 106.656 84.3216L107.086 84.9716C108.136 84.5716 108.966 83.7316 109.346 82.6916C109.736 83.6116 110.506 84.3516 111.506 84.7116L111.916 84.0716ZM111.056 88.0316C109.706 88.0316 108.886 87.6516 108.886 87.0016C108.886 86.3516 109.706 85.9616 111.056 85.9616C112.406 85.9616 113.226 86.3516 113.226 87.0016C113.226 87.6516 112.406 88.0316 111.056 88.0316ZM111.056 85.3316C109.216 85.3316 108.066 85.9416 108.066 87.0016C108.066 88.0616 109.216 88.6716 111.056 88.6716C112.896 88.6716 114.046 88.0616 114.046 87.0016C114.046 85.9416 112.896 85.3316 111.056 85.3316Z" fill="white"/>
<path d="M262.593 252.28L208.383 244.157L310.903 192.1V161.456L290.805 151.119V136.904L388.347 187.485L262.593 252.28Z" fill="#1D2936" fill-opacity="0.3"/>
<defs>
<filter id="filter0_b_4_130" x="135.445" y="167.203" width="144.208" height="55.8823" filterUnits="userSpaceOnUse" color-interpolation-filters="sRGB">
<feFlood flood-opacity="0" result="BackgroundImageFix"/>
<feGaussianBlur in="BackgroundImage" stdDeviation="5"/>
<feComposite in2="SourceAlpha" operator="in" result="effect1_backgroundBlur_4_130"/>
<feBlend mode="normal" in="SourceGraphic" in2="effect1_backgroundBlur_4_130" result="shape"/>
</filter>
<filter id="filter1_d_4_130" x="-37.4492" y="20.6199" width="233.303" height="159.33" filterUnits="userSpaceOnUse" color-interpolation-filters="sRGB">
<feFlood flood-opacity="0" result="BackgroundImageFix"/>
<feColorMatrix in="SourceAlpha" type="matrix" values="0 0 0 0 0 0 0 0 0 0 0 0 0 0 0 0 0 0 127 0" result="hardAlpha"/>
<feOffset dy="23"/>
<feGaussianBlur stdDeviation="31"/>
<feColorMatrix type="matrix" values="0 0 0 0 0.921569 0 0 0 0 0.211765 0 0 0 0 0.215686 0 0 0 0.3 0"/>
<feBlend mode="normal" in2="BackgroundImageFix" result="effect1_dropShadow_4_130"/>
<feBlend mode="normal" in="SourceGraphic" in2="effect1_dropShadow_4_130" result="shape"/>
</filter>
<linearGradient id="paint0_linear_4_130" x1="23.9832" y1="187.692" x2="390.002" y2="187.692" gradientUnits="userSpaceOnUse">
<stop stop-color="#73808C"/>
<stop offset="0.031365" stop-color="#6F7C88"/>
<stop offset="0.2384" stop-color="#586471"/>
<stop offset="0.4589" stop-color="#475360"/>
<stop offset="0.6999" stop-color="#3D4956"/>
<stop offset="1" stop-color="#3A4653"/>
</linearGradient>
<linearGradient id="paint1_linear_4_130" x1="103.85" y1="171.369" x2="310.8" y2="171.369" gradientUnits="userSpaceOnUse">
<stop stop-color="#73808C"/>
<stop offset="0.031365" stop-color="#6F7C88"/>
<stop offset="0.2384" stop-color="#586471"/>
<stop offset="0.4589" stop-color="#475360"/>
<stop offset="0.6999" stop-color="#3D4956"/>
<stop offset="1" stop-color="#3A4653"/>
</linearGradient>
<linearGradient id="paint2_linear_4_130" x1="124.545" y1="140.327" x2="290.105" y2="140.327" gradientUnits="userSpaceOnUse">
<stop stop-color="#73808C"/>
<stop offset="0.031365" stop-color="#6F7C88"/>
<stop offset="0.2384" stop-color="#586471"/>
<stop offset="0.4589" stop-color="#475360"/>
<stop offset="0.6999" stop-color="#3D4956"/>
<stop offset="1" stop-color="#3A4653"/>
</linearGradient>
<linearGradient id="paint3_linear_4_130" x1="145.24" y1="109.284" x2="269.41" y2="109.284" gradientUnits="userSpaceOnUse">
<stop stop-color="#73808C"/>
<stop offset="0.031365" stop-color="#6F7C88"/>
<stop offset="0.2384" stop-color="#586471"/>
<stop offset="0.4589" stop-color="#475360"/>
<stop offset="0.6999" stop-color="#3D4956"/>
<stop offset="1" stop-color="#3A4653"/>
</linearGradient>
<linearGradient id="paint4_linear_4_130" x1="165.938" y1="78.2412" x2="248.719" y2="78.2412" gradientUnits="userSpaceOnUse">
<stop stop-color="#73808C"/>
<stop offset="0.031365" stop-color="#6F7C88"/>
<stop offset="0.2384" stop-color="#586471"/>
<stop offset="0.4589" stop-color="#475360"/>
<stop offset="0.6999" stop-color="#3D4956"/>
<stop offset="1" stop-color="#3A4653"/>
</linearGradient>
<linearGradient id="paint5_linear_4_130" x1="186.629" y1="47.1988" x2="228.019" y2="47.1988" gradientUnits="userSpaceOnUse">
<stop stop-color="#73808C"/>
<stop offset="0.031365" stop-color="#6F7C88"/>
<stop offset="0.2384" stop-color="#586471"/>
<stop offset="0.4589" stop-color="#475360"/>
<stop offset="0.6999" stop-color="#3D4956"/>
<stop offset="1" stop-color="#3A4653"/>
</linearGradient>
<radialGradient id="paint6_radial_4_130" cx="0" cy="0" r="1" gradientUnits="userSpaceOnUse" gradientTransform="translate(207.324 47.1988) scale(12.9344)">
<stop/>
<stop offset="0.0628529" stop-color="#252525"/>
<stop offset="0.1601" stop-color="#585858"/>
<stop offset="0.2621" stop-color="#848484"/>
<stop offset="0.3668" stop-color="#AAAAAA"/>
<stop offset="0.475" stop-color="#C9C9C9"/>
<stop offset="0.5878" stop-color="#E1E1E1"/>
<stop offset="0.7072" stop-color="#F2F2F2"/>
<stop offset="0.8376" stop-color="#FCFCFC"/>
<stop offset="1" stop-color="white"/>
</radialGradient>
<linearGradient id="paint7_linear_4_130" x1="198.725" y1="25.9917" x2="215.859" y2="43.1257" gradientUnits="userSpaceOnUse">
<stop stop-color="#FF9494"/>
<stop offset="1" stop-color="#FFD5D5"/>
</linearGradient>
<linearGradient id="paint8_linear_4_130" x1="207.322" y1="47.1987" x2="207.322" y2="21.9766" gradientUnits="userSpaceOnUse">
<stop stop-color="#F84647"/>
<stop offset="1" stop-color="#D03A3B"/>
</linearGradient>
<linearGradient id="paint9_linear_4_130" x1="210.464" y1="47.1976" x2="210.464" y2="21.9983" gradientUnits="userSpaceOnUse">
<stop stop-color="#F84647"/>
<stop offset="1" stop-color="#D03A3B"/>
</linearGradient>
<linearGradient id="paint10_linear_4_130" x1="212.287" y1="47.1982" x2="212.287" y2="21.9987" gradientUnits="userSpaceOnUse">
<stop stop-color="#F84647"/>
<stop offset="1" stop-color="#D03A3B"/>
</linearGradient>
<linearGradient id="paint11_linear_4_130" x1="212.502" y1="47.1983" x2="212.502" y2="21.9984" gradientUnits="userSpaceOnUse">
<stop stop-color="#F84647"/>
<stop offset="1" stop-color="#D03A3B"/>
</linearGradient>
<linearGradient id="paint12_linear_4_130" x1="215.129" y1="47.1987" x2="215.129" y2="21.999" gradientUnits="userSpaceOnUse">
<stop stop-color="#D03A3B"/>
<stop offset="1" stop-color="#F84647"/>
</linearGradient>
<linearGradient id="paint13_linear_4_130" x1="216.207" y1="47.1989" x2="216.207" y2="21.9991" gradientUnits="userSpaceOnUse">
<stop stop-color="#D03A3B"/>
<stop offset="1" stop-color="#B62324"/>
</linearGradient>
<linearGradient id="paint14_linear_4_130" x1="79.2024" y1="59.6199" x2="79.2024" y2="94.9502" gradientUnits="userSpaceOnUse">
<stop stop-color="#A5250A"/>
<stop offset="1" stop-color="#C13011"/>
</linearGradient>
</defs>
</svg>
