<svg width="25" height="25" viewBox="0 0 25 25" fill="none" xmlns="http://www.w3.org/2000/svg">
<path d="M12.5 2.08331C6.74998 2.08331 2.08331 6.74998 2.08331 12.5C2.08331 18.25 6.74998 22.9166 12.5 22.9166C18.25 22.9166 22.9166 18.25 22.9166 12.5C22.9166 6.74998 18.25 2.08331 12.5 2.08331ZM12.5 20.8333C7.90623 20.8333 4.16665 17.0937 4.16665 12.5C4.16665 7.90623 7.90623 4.16665 12.5 4.16665C17.0937 4.16665 20.8333 7.90623 20.8333 12.5C20.8333 17.0937 17.0937 20.8333 12.5 20.8333ZM16.5416 8.6354L10.4166 14.7604L8.45831 12.8021C8.05206 12.3958 7.39581 12.3958 6.98956 12.8021C6.58331 13.2083 6.58331 13.8646 6.98956 14.2708L9.68748 16.9687C10.0937 17.375 10.75 17.375 11.1562 16.9687L18.0208 10.1041C18.4271 9.6979 18.4271 9.04165 18.0208 8.6354C17.6146 8.22915 16.9479 8.22915 16.5416 8.6354Z" fill="#CE3B3B"/>
</svg>
