<svg width="25" height="25" viewBox="0 0 25 25" fill="none" xmlns="http://www.w3.org/2000/svg">
<path d="M12.5 2.08331C6.75001 2.08331 2.08334 6.74998 2.08334 12.5C2.08334 18.25 6.75001 22.9166 12.5 22.9166C18.25 22.9166 22.9167 18.25 22.9167 12.5C22.9167 6.74998 18.25 2.08331 12.5 2.08331ZM12.5 20.8333C7.90626 20.8333 4.16668 17.0937 4.16668 12.5C4.16668 7.90623 7.90626 4.16665 12.5 4.16665C17.0938 4.16665 20.8333 7.90623 20.8333 12.5C20.8333 17.0937 17.0938 20.8333 12.5 20.8333ZM16.5417 8.6354L10.4167 14.7604L8.45834 12.8021C8.05209 12.3958 7.39584 12.3958 6.98959 12.8021C6.58334 13.2083 6.58334 13.8646 6.98959 14.2708L9.68751 16.9687C10.0938 17.375 10.75 17.375 11.1563 16.9687L18.0208 10.1041C18.4271 9.6979 18.4271 9.04165 18.0208 8.6354C17.6146 8.22915 16.9479 8.22915 16.5417 8.6354Z" fill="#47CE3B"/>
</svg>
