<svg width="35" height="35" viewBox="0 0 35 35" fill="none" xmlns="http://www.w3.org/2000/svg">
<path d="M24.5438 10.2084C23.8 10.2084 23.1146 10.6313 22.7938 11.2875L20.7229 15.4292C20.5188 15.8375 20.4167 16.275 20.4167 16.7271V23.3334C20.4167 24.1354 21.0729 24.7917 21.875 24.7917H27.7083C28.5104 24.7917 29.1667 24.1354 29.1667 23.3334V17.5C29.1667 16.6979 28.5104 16.0417 27.7083 16.0417H24.7917L26.2938 13.0375C26.95 11.7396 26.0021 10.2084 24.5438 10.2084ZM9.96042 10.2084C9.21667 10.2084 8.53126 10.6313 8.21042 11.2875L6.13959 15.4292C5.93542 15.8375 5.83334 16.275 5.83334 16.7271V23.3334C5.83334 24.1354 6.48959 24.7917 7.29167 24.7917H13.125C13.9271 24.7917 14.5833 24.1354 14.5833 23.3334L14.5833 17.5C14.5833 16.6979 13.9271 16.0417 13.125 16.0417H10.2083L11.7104 13.0375C12.3667 11.7396 11.4188 10.2084 9.96042 10.2084Z" fill="#A5250A"/>
</svg>
