<svg width="31" height="31" viewBox="0 0 31 31" fill="none" xmlns="http://www.w3.org/2000/svg">
<path d="M11.625 16.7917C14.4785 16.7917 16.7916 14.4785 16.7916 11.625C16.7916 8.77157 14.4785 6.45837 11.625 6.45837C8.77151 6.45837 6.45831 8.77157 6.45831 11.625C6.45831 14.4785 8.77151 16.7917 11.625 16.7917Z" fill="#A5250A"/>
<path d="M11.625 19.375C8.17627 19.375 1.29169 21.1059 1.29169 24.5417V25.8334C1.29169 26.5438 1.87294 27.125 2.58335 27.125H20.6667C21.3771 27.125 21.9584 26.5438 21.9584 25.8334V24.5417C21.9584 21.1059 15.0738 19.375 11.625 19.375ZM19.9821 10.0363C20.3954 11.0567 20.3954 12.1934 19.9821 13.2138C19.7367 13.8209 19.84 14.5055 20.305 14.9705L20.3438 15.0092C21.0929 15.7584 22.3717 15.6034 22.8625 14.6605C23.8442 12.7875 23.8442 10.5917 22.8367 8.64129C22.3459 7.68545 21.0542 7.50462 20.2921 8.2667L20.2792 8.27962C19.84 8.7317 19.7367 9.4292 19.9821 10.0363ZM24.7742 3.73295C24.2575 4.24962 24.18 5.05045 24.6063 5.64462C27.1509 9.18379 27.1379 13.9242 24.5675 17.5925C24.1542 18.1738 24.2446 18.9746 24.7484 19.4784L24.7871 19.5171C25.42 20.15 26.4921 20.0984 27.0346 19.388C30.5867 14.8155 30.5996 8.5767 27.0346 3.86212C26.4921 3.1517 25.4071 3.10004 24.7742 3.73295Z" fill="#A5250A"/>
</svg>
