<svg width="58" height="58" viewBox="0 0 58 58" fill="none" xmlns="http://www.w3.org/2000/svg">
<g clip-path="url(#clip0_2_109)">
<path d="M7.93317 18.366L11.2531 24.1163C11.7115 24.9102 12.7266 25.1822 13.5205 24.7238L14.9768 23.883C15.4888 24.2362 16.0285 24.5473 16.5929 24.8144V26.4977C16.5929 27.4144 17.336 28.1575 18.2527 28.1575H24.8926C25.8093 28.1575 26.5524 27.4144 26.5524 26.4977V24.8144C27.1168 24.5473 27.6565 24.2363 28.1685 23.883L29.6248 24.7238C30.4187 25.1822 31.4338 24.9102 31.8921 24.1163L35.2121 18.366C35.6704 17.5721 35.3984 16.557 34.6046 16.0986L33.1521 15.2601C33.1789 14.9459 33.1921 14.6354 33.1921 14.3247C33.1921 14.0141 33.1789 13.7036 33.1521 13.3894L34.6046 12.5508C35.3984 12.0925 35.6704 11.0774 35.2121 10.2835L31.8921 4.53321C31.4338 3.73932 30.4187 3.46732 29.6248 3.92568L28.1685 4.76648C27.6565 4.41325 27.1168 4.10218 26.5524 3.83504V2.152C26.5523 1.23528 25.8092 0.492188 24.8925 0.492188H18.2526C17.3358 0.492188 16.5928 1.23528 16.5928 2.152V3.83527C16.0284 4.1024 15.4887 4.41336 14.9767 4.7667L13.5204 3.9259C12.7265 3.46754 11.7114 3.73954 11.253 4.53343L7.93317 10.2837C7.47481 11.0776 7.74682 12.0927 8.5407 12.5511L9.99313 13.3897C9.96624 13.7037 9.95307 14.0142 9.95307 14.3249C9.95307 14.6355 9.96624 14.946 9.99302 15.2602L8.54059 16.0988C7.74682 16.557 7.47481 17.5721 7.93317 18.366ZM19.9126 11.005C19.9126 10.0883 20.6558 9.34509 21.5725 9.34509C22.4892 9.34509 23.2324 10.0883 23.2324 11.005V12.6649H24.8924C25.8091 12.6649 26.5523 13.4081 26.5523 14.3249C26.5523 15.2416 25.8091 15.9848 24.8924 15.9848H21.5725C20.6558 15.9848 19.9126 15.2416 19.9126 14.3249V11.005Z" fill="white"/>
<path d="M55.8776 31.4774H50.8978C49.9811 31.4774 49.2379 32.2206 49.2379 33.1373V53.8309H43.7048V37.5637C43.7048 36.647 42.9616 35.9038 42.0449 35.9038H37.0652C36.1484 35.9038 35.4052 36.647 35.4052 37.5637V53.8309H29.8722V41.9902C29.8722 41.0735 29.129 40.3303 28.2122 40.3303H23.2325C22.3158 40.3303 21.5726 41.0735 21.5726 41.9902V53.8309H16.0395V46.4166C16.0395 45.4999 15.2963 44.7567 14.3796 44.7567H9.39983C8.48311 44.7567 7.73991 45.4999 7.73991 46.4166V53.8309H4.19875V2.15211C4.19875 1.23539 3.45554 0.492188 2.53883 0.492188C1.62211 0.492188 0.878906 1.23539 0.878906 2.15211V55.4909C0.878906 56.4076 1.62211 57.1508 2.53883 57.1508H55.8776C56.7943 57.1508 57.5375 56.4076 57.5375 55.4909V33.1373C57.5375 32.2206 56.7943 31.4774 55.8776 31.4774Z" fill="white"/>
<path d="M9.39985 34.7972C8.48313 34.7972 7.73993 35.5404 7.73993 36.4571C7.73993 37.3739 8.48313 38.1171 9.39985 38.1171C27.073 38.1171 43.3846 29.1551 52.8878 14.4794L53.1433 15.7571C53.3231 16.656 54.1975 17.239 55.0964 17.0592C55.9953 16.8794 56.5783 16.0049 56.3985 15.106L55.2919 9.57296C55.112 8.67406 54.2376 8.0911 53.3387 8.27081L47.8056 9.37743C46.9067 9.55725 46.3238 10.4317 46.5035 11.3306C46.6833 12.2295 47.5578 12.8125 48.4567 12.6327L50.3756 12.249C41.5232 26.2368 26.1113 34.7972 9.39985 34.7972Z" fill="white"/>
</g>
<defs>
<clipPath id="clip0_2_109">
<rect width="56.6586" height="56.6586" fill="white" transform="translate(0.878906 0.492188)"/>
</clipPath>
</defs>
</svg>
