<svg width="57" height="57" viewBox="0 0 57 57" fill="none" xmlns="http://www.w3.org/2000/svg">
<path d="M24.406 49.6135L16.4384 45.187C16.2685 45.0907 16.1352 44.941 16.0593 44.7611C15.9834 44.5812 15.969 44.3813 16.0185 44.1924C16.068 44.0035 16.1786 43.8363 16.333 43.7168C16.4874 43.5972 16.6769 43.5321 16.8722 43.5315H27.4957C27.7305 43.5315 27.9557 43.4382 28.1217 43.2722C28.2877 43.1062 28.381 42.881 28.381 42.6462V42.2036C28.381 42.012 28.3188 41.8256 28.2039 41.6724C28.089 41.5192 27.9275 41.4073 27.7436 41.3537L14.0924 37.3345H8.90459V49.9764L18.7844 53.2697H31.7716L45.4936 48.4272C45.6678 48.3663 45.8186 48.2525 45.925 48.1017C46.0313 47.9509 46.0879 47.7707 46.0868 47.5861V46.7805C46.0868 46.6431 46.0548 46.5075 45.9933 46.3846C45.9319 46.2617 45.8426 46.1548 45.7327 46.0723C45.6227 45.9898 45.4951 45.9341 45.3599 45.9095C45.2246 45.8849 45.0855 45.8922 44.9536 45.9307L32.17 49.6931C32.0899 49.7185 32.0061 49.7305 31.9221 49.7286H24.8398C24.6874 49.7303 24.5375 49.6905 24.406 49.6135Z" fill="white"/>
<path d="M29.2663 40.2294V10.7758H27.4957V39.4326L28.2482 39.6539C28.6256 39.7689 28.9732 39.9653 29.2663 40.2294Z" fill="white"/>
<path d="M19.2007 15.4147L17.9613 10.7758H8.70115L7.46174 15.4147C9.14809 14.1284 11.2103 13.4317 13.3312 13.4317C15.4521 13.4317 17.5143 14.1284 19.2007 15.4147Z" fill="white"/>
<path d="M27.4957 47.9581H29.2663V44.6117C28.7827 45.0543 28.1513 45.3005 27.4957 45.3022V47.9581Z" fill="white"/>
<path d="M13.3309 15.2023C11.7551 15.2023 10.2146 15.6696 8.90434 16.5451C7.59407 17.4205 6.57284 18.6649 5.96979 20.1208C5.36674 21.5767 5.20896 23.1787 5.51639 24.7243C5.82382 26.2699 6.58266 27.6895 7.69695 28.8038C8.81124 29.9181 10.2309 30.677 11.7765 30.9844C13.3221 31.2918 14.9241 31.134 16.38 30.531C17.8359 29.9279 19.0802 28.9067 19.9557 27.5965C20.8312 26.2862 21.2985 24.7457 21.2985 23.1699C21.2952 21.0577 20.4547 19.0331 18.9612 17.5396C17.4677 16.046 15.443 15.2055 13.3309 15.2023ZM13.3309 29.3669C12.1052 29.3669 10.9071 29.0035 9.88802 28.3225C8.86892 27.6416 8.07463 26.6737 7.60559 25.5414C7.13656 24.409 7.01383 23.163 7.25295 21.9609C7.49206 20.7588 8.08227 19.6546 8.94894 18.7879C9.81561 17.9212 10.9198 17.331 12.1219 17.0919C13.324 16.8528 14.57 16.9755 15.7024 17.4446C16.8348 17.9136 17.8026 18.7079 18.4836 19.727C19.1645 20.7461 19.5279 21.9442 19.5279 23.1699C19.5261 24.8129 18.8726 26.388 17.7108 27.5498C16.549 28.7115 14.9739 29.365 13.3309 29.3669Z" fill="white"/>
<path d="M13.331 18.7434C12.4555 18.7434 11.5997 19.003 10.8718 19.4894C10.1439 19.9758 9.57654 20.6671 9.24151 21.4759C8.90648 22.2848 8.81882 23.1748 8.98962 24.0334C9.16041 24.8921 9.58199 25.6808 10.201 26.2998C10.8201 26.9189 11.6088 27.3405 12.4675 27.5113C13.3261 27.6821 14.2161 27.5944 15.0249 27.2594C15.8338 26.9243 16.5251 26.357 17.0115 25.6291C17.4979 24.9011 17.7575 24.0453 17.7575 23.1699C17.7561 21.9963 17.2893 20.8713 16.4594 20.0414C15.6296 19.2116 14.5046 18.7448 13.331 18.7434ZM13.8224 25.677C13.6769 25.7741 13.5059 25.8259 13.331 25.8259C13.1561 25.8259 12.9852 25.7741 12.8397 25.677L10.1838 23.9064L11.1665 22.4333L12.4457 23.2867V20.514H14.2163V23.2867L15.4956 22.4333L16.4782 23.9064L13.8224 25.677Z" fill="white"/>
<path d="M3.59287 34.6787H7.13404V52.3845H3.59287V34.6787Z" fill="white"/>
<path d="M31.0369 6.34935C31.0369 5.64497 30.7571 4.96944 30.259 4.47137C29.7609 3.9733 29.0854 3.69348 28.381 3.69348C27.6766 3.69348 27.0011 3.9733 26.503 4.47137C26.005 4.96944 25.7251 5.64497 25.7251 6.34935C25.7251 6.58415 25.6319 6.80932 25.4658 6.97535C25.2998 7.14137 25.0746 7.23464 24.8399 7.23464H3.59287V9.00522H53.1692V7.23464H31.9222C31.6874 7.23464 31.4622 7.14137 31.2962 6.97535C31.1302 6.80932 31.0369 6.58415 31.0369 6.34935Z" fill="white"/>
<path d="M49.3005 15.4147L48.0611 10.7758H38.8009L37.5615 15.4147C39.2479 14.1284 41.3101 13.4317 43.431 13.4317C45.5519 13.4317 47.6141 14.1284 49.3005 15.4147Z" fill="white"/>
<path d="M43.4309 15.2023C41.8551 15.2023 40.3146 15.6696 39.0044 16.5451C37.6941 17.4205 36.6729 18.6649 36.0698 20.1208C35.4668 21.5767 35.309 23.1787 35.6164 24.7243C35.9239 26.2699 36.6827 27.6895 37.797 28.8038C38.9113 29.9181 40.331 30.677 41.8765 30.9844C43.4221 31.2918 45.0241 31.134 46.48 30.531C47.9359 29.9279 49.1803 28.9067 50.0558 27.5965C50.9313 26.2862 51.3986 24.7457 51.3986 23.1699C51.3953 21.0577 50.5548 19.0331 49.0613 17.5396C47.5678 16.046 45.5431 15.2055 43.4309 15.2023ZM46.0868 20.514H42.5457V22.2846H44.3162C44.7858 22.2846 45.2362 22.4711 45.5682 22.8032C45.9003 23.1352 46.0868 23.5856 46.0868 24.0552V25.8258C46.0868 26.2953 45.9003 26.7457 45.5682 27.0777C45.2362 27.4098 44.7858 27.5963 44.3162 27.5963V29.3669H42.5457V27.5963H40.7751V25.8258H44.3162V24.0552H42.5457C42.0761 24.0552 41.6257 23.8686 41.2937 23.5366C40.9616 23.2045 40.7751 22.7542 40.7751 22.2846V20.514C40.7751 20.0444 40.9616 19.5941 41.2937 19.262C41.6257 18.93 42.0761 18.7434 42.5457 18.7434V16.9729H44.3162V18.7434H46.0868V20.514Z" fill="white"/>
</svg>
