<svg width="57" height="58" viewBox="0 0 57 58" fill="none" xmlns="http://www.w3.org/2000/svg">
<g clip-path="url(#clip0_2_116)">
<path d="M28.6702 50.1511C26.373 50.1511 24.3156 49.108 22.9443 47.4714C21.3604 48.9838 20.3706 51.1133 20.3706 53.4709V55.6842C20.3706 56.6009 21.1138 57.3441 22.0305 57.3441H35.3099C36.2266 57.3441 36.9698 56.6009 36.9698 55.6842V53.4709C36.9698 51.1133 35.98 48.9838 34.3961 47.4714C33.0248 49.108 30.9674 50.1511 28.6702 50.1511Z" fill="white"/>
<path d="M8.64058 46.8314C10.9288 46.8314 12.7904 44.9698 12.7904 42.6816V40.4683C12.7904 38.7701 11.7647 37.3077 10.3005 36.666V35.6546C10.3005 34.7393 11.0451 33.9947 11.9604 33.9947H27.0104V36.6661C25.5462 37.3079 24.5205 38.7702 24.5205 40.4683V42.6816C24.5205 44.9698 26.382 46.8314 28.6703 46.8314C30.9585 46.8314 32.8201 44.9698 32.8201 42.6816V40.4683C32.8201 38.7701 31.7944 37.3077 30.3302 36.666V33.9947H45.3802C46.2954 33.9947 47.0401 34.7393 47.0401 35.6546V36.6661C45.5759 37.3079 44.5502 38.7702 44.5502 40.4683V42.6816C44.5502 44.9698 46.4117 46.8314 48.7 46.8314C50.9882 46.8314 52.8498 44.9698 52.8498 42.6816V40.4683C52.8498 38.7701 51.8241 37.3077 50.3599 36.666V35.6546C50.3599 32.9087 48.126 30.6748 45.3802 30.6748H30.3302V28.2618C29.7846 28.3203 29.231 28.3509 28.6703 28.3509C28.1096 28.3509 27.5559 28.3202 27.0104 28.2618V30.6748H11.9604C9.21458 30.6748 6.98066 32.9087 6.98066 35.6546V36.6661C5.5165 37.3079 4.49078 38.7702 4.49078 40.4683V42.6816C4.49078 44.9698 6.35233 46.8314 8.64058 46.8314Z" fill="white"/>
<path d="M8.64042 50.1511C6.3432 50.1511 4.28579 49.108 2.91447 47.4714C1.33058 48.9838 0.34082 51.1133 0.34082 53.4709V55.6842C0.34082 56.6009 1.08402 57.3441 2.00074 57.3441H15.2801C16.1968 57.3441 16.94 56.6009 16.94 55.6842V53.4709C16.94 51.1133 15.9503 48.9838 14.3664 47.4714C12.9951 49.108 10.9376 50.1511 8.64042 50.1511Z" fill="white"/>
<path d="M54.4256 47.4714C53.0543 49.108 50.9969 50.1511 48.6997 50.1511C46.4025 50.1511 44.3451 49.108 42.9737 47.4714C41.3898 48.9838 40.4001 51.1133 40.4001 53.4709V55.6842C40.4001 56.6009 41.1433 57.3441 42.06 57.3441H55.3394C56.2561 57.3441 56.9993 56.6009 56.9993 55.6842V53.4709C56.9993 51.1133 56.0095 48.9838 54.4256 47.4714Z" fill="white"/>
<path d="M30.7956 15.8594C30.8683 15.4268 30.898 14.396 29.7006 13.8916V17.4462C30.323 17.0896 30.6947 16.4592 30.7956 15.8594Z" fill="white"/>
<path d="M28.6699 25.031C35.3927 25.031 40.8427 19.5811 40.8427 12.8583C40.8427 6.13551 35.3927 0.685547 28.6699 0.685547C21.9472 0.685547 16.4972 6.13551 16.4972 12.8583C16.4972 19.5811 21.9472 25.031 28.6699 25.031ZM24.4826 17.381C24.8173 16.8694 25.5031 16.7262 26.0145 17.0607C26.6122 17.4516 26.9869 17.6216 27.487 17.692V13.0181C26.7801 12.6941 26.2518 12.3824 25.8183 12.0425C24.9 11.3222 24.4807 10.0725 24.7241 8.78109C24.9892 7.37369 25.9689 6.25402 27.2806 5.85885C27.3501 5.83794 27.4188 5.81879 27.487 5.80064V5.112C27.487 4.50082 27.9824 4.00539 28.5936 4.00539C29.2048 4.00539 29.7002 4.50082 29.7002 5.112V5.67936C30.7746 5.86538 31.534 6.39434 31.9017 6.8164C32.3032 7.2772 32.2551 7.97625 31.7944 8.37773C31.3359 8.7771 30.6419 8.73162 30.2395 8.27769C30.2144 8.25235 30.0385 8.08281 29.7002 7.95799V11.5337C29.8966 11.6066 30.0928 11.6773 30.2856 11.7455C32.2309 12.4331 33.3128 14.2338 32.9779 16.2263C32.7175 17.7749 31.5389 19.3456 29.7002 19.8119V20.6046C29.7002 21.2158 29.2048 21.7112 28.5936 21.7112C27.9824 21.7112 27.487 21.2158 27.487 20.6046V19.9181C26.5935 19.8409 25.8528 19.5997 24.803 18.9128C24.2914 18.5783 24.148 17.8924 24.4826 17.381Z" fill="white"/>
<path d="M27.4873 8.19983C27.1495 8.45878 26.9634 8.85085 26.8993 9.19091C26.8109 9.66001 26.9229 10.0958 27.1846 10.301C27.2768 10.3732 27.3784 10.4443 27.4873 10.5141V8.19983Z" fill="white"/>
</g>
<defs>
<clipPath id="clip0_2_116">
<rect width="56.6586" height="56.6586" fill="white" transform="translate(0.34082 0.685547)"/>
</clipPath>
</defs>
</svg>
