<svg width="97" height="32" viewBox="0 0 97 32" fill="none" xmlns="http://www.w3.org/2000/svg">
<g clip-path="url(#clip0_4_53)">
<path d="M16.6997 7.66187L16.6986 7.648L1.96448 7.64694L19.4622 5.0848L2.9 5.104L21.9218 2.50667L21.9133 2.49707L3.80115 2.56L24.8197 0.00639954L24.8122 0L4.78178 0.00853272L3.5294 2.56L3.52082 2.55894L2.30604 5.18294H2.31678L1.12563 7.76854L1.14496 7.76746L0 10.2933L16.6997 7.66187Z" fill="white"/>
<path d="M29.4079 6.5102C24.8334 11.0446 18.4566 18.6436 13.054 29.867C18.8121 17.0809 24.8752 8.52301 28.3756 4.23287L28.3563 4.219C23.77 8.48357 16.2214 16.8216 9.99286 29.9022C16.8401 14.5924 24.2749 5.2718 27.3177 1.8958H27.2909C23.1471 5.371 13.7564 14.4174 6.41621 30.0932C15.4653 9.64941 25.5659 0.41847 25.8838 0.19447L25.8967 0.158203L25.5562 0.391802C22.3211 2.907 11.0626 12.587 2.78906 31.1384L5.92321 31.1652L5.94255 31.1662L9.38708 31.1982H9.42687L12.4095 31.2249H12.4514L16.6618 31.2644C20.058 19.1033 25.9064 11.3604 29.396 6.53047L29.4079 6.5102Z" fill="white"/>
<path d="M38.8066 17.5765C38.6757 17.8877 38.4738 18.1629 38.1981 18.4035C37.9224 18.6414 37.5687 18.835 37.137 18.983C36.7052 19.1296 36.1928 19.2043 35.6009 19.2043C35.3558 19.2043 35.1107 19.1877 34.8712 19.1531C34.6289 19.1185 34.3963 19.0757 34.1721 19.0203C33.9479 18.9664 33.7418 18.9 33.5551 18.8253C33.3699 18.7493 33.2098 18.6746 33.0733 18.5985C33.0302 18.5737 33.019 18.5432 33.0344 18.51L33.4047 17.2999C33.4201 17.2487 33.4535 17.2363 33.505 17.2612C33.7766 17.4299 34.1039 17.5709 34.491 17.6844C34.8754 17.7977 35.2834 17.8545 35.7151 17.8545C36.2318 17.8545 36.6328 17.7493 36.9155 17.5392C37.1996 17.3289 37.3388 17.0551 37.3388 16.719C37.3388 16.4079 37.2149 16.1493 36.9587 15.9432C36.7052 15.7371 36.2944 15.5449 35.7276 15.3693C35.3461 15.2503 35.0007 15.1161 34.6929 14.9585C34.3837 14.805 34.1178 14.6238 33.8991 14.4177C33.6791 14.2117 33.5079 13.9793 33.3853 13.7235C33.2614 13.4677 33.2001 13.1758 33.2001 12.8467C33.2001 12.494 33.2753 12.1677 33.4215 11.8689C33.5705 11.5701 33.7821 11.3116 34.0579 11.093C34.3323 10.8745 34.6637 10.7045 35.048 10.5827C35.4338 10.4624 35.8668 10.4001 36.3501 10.4001C36.8654 10.4001 37.3096 10.4444 37.6773 10.5329C38.0449 10.6201 38.3526 10.7279 38.5978 10.8552C38.6396 10.8717 38.6534 10.8994 38.6354 10.9423L38.2552 12.1026C38.2469 12.1275 38.2287 12.1455 38.2037 12.1538C38.1785 12.1621 38.1577 12.158 38.1396 12.1413C37.9962 12.0639 37.7663 11.9768 37.4475 11.8745C37.1313 11.7749 36.7554 11.7251 36.325 11.7251C36.0535 11.7251 35.8251 11.7541 35.6399 11.8136C35.4519 11.8703 35.3015 11.9491 35.1887 12.0459C35.0745 12.1427 34.9895 12.252 34.9339 12.3737C34.8796 12.4968 34.8517 12.6157 34.8517 12.7333C34.8517 13.0445 34.9868 13.2948 35.2583 13.4842C35.5285 13.6723 35.9644 13.8604 36.566 14.0457C37.3793 14.3057 37.9892 14.6321 38.3958 15.0221C38.8011 15.4149 39.003 15.946 39.003 16.6181C39.003 16.9458 38.9389 17.2667 38.8066 17.5765Z" fill="white"/>
<path d="M43.9679 11.9006V18.976C43.9679 19.0257 43.9428 19.0506 43.8913 19.0506H42.4053C42.3552 19.0506 42.3302 19.0257 42.3302 18.976V11.9006H39.6508C39.5993 11.9006 39.5742 11.8743 39.5742 11.8245V10.613C39.5742 10.5716 39.5993 10.5508 39.6508 10.5508H46.6612C46.7113 10.5508 46.7377 10.5716 46.7377 10.613V11.8245C46.7377 11.8743 46.7113 11.9006 46.6612 11.9006H43.9679Z" fill="white"/>
<path d="M49.1389 16.0378C49.2657 16.4084 49.4453 16.732 49.6793 17.0086C49.9104 17.2866 50.1974 17.5051 50.5357 17.6642C50.8756 17.8259 51.2557 17.9048 51.679 17.9048C52.1122 17.9048 52.4993 17.8259 52.8405 17.6642C53.1844 17.5051 53.4741 17.2866 53.7122 17.0086C53.949 16.732 54.13 16.4014 54.2582 16.0184C54.3849 15.6366 54.4489 15.2231 54.4489 14.7765C54.4489 14.3809 54.3891 13.9978 54.2707 13.6286C54.1523 13.2593 53.9754 12.9315 53.7429 12.6453C53.5103 12.359 53.2221 12.1308 52.8795 11.9579C52.5355 11.785 52.1428 11.6993 51.7042 11.6993C51.2557 11.6993 50.8602 11.7837 50.5162 11.951C50.1751 12.1211 49.8854 12.3451 49.6528 12.6328C49.4189 12.9191 49.2434 13.2524 49.1265 13.6355C49.0067 14.0172 48.9482 14.4238 48.9482 14.8525C48.9482 15.273 49.0122 15.6685 49.1389 16.0378ZM55.8317 16.5798C55.6034 17.1358 55.2845 17.6061 54.8793 17.9933C54.4726 18.3805 53.9935 18.6793 53.4379 18.8894C52.8837 19.0983 52.2848 19.2034 51.6415 19.2034C50.9813 19.2034 50.3797 19.0942 49.8381 18.8756C49.2949 18.6571 48.8326 18.357 48.4468 17.9739C48.0611 17.5908 47.7631 17.1372 47.5528 16.6117C47.3397 16.0875 47.2339 15.5163 47.2339 14.9023C47.2339 14.2385 47.3467 13.6314 47.5695 13.0809C47.7937 12.5305 48.107 12.0547 48.5039 11.655C48.9036 11.2567 49.3785 10.947 49.9327 10.7284C50.4884 10.5099 51.09 10.4006 51.7431 10.4006C52.4199 10.4006 53.0312 10.5099 53.5785 10.7284C54.1245 10.947 54.5882 11.2485 54.9754 11.6302C55.3597 12.0132 55.6563 12.4682 55.8624 12.9993C56.0713 13.5276 56.1757 14.1002 56.1757 14.7142C56.1757 15.403 56.0601 16.0239 55.8317 16.5798Z" fill="white"/>
<path d="M63.6229 10.5442C64.0253 10.641 64.315 10.7351 64.4932 10.8292C64.535 10.8458 64.5476 10.8748 64.5308 10.9163L64.1883 12.0641C64.1715 12.1237 64.1354 12.1361 64.0866 12.1029C63.8568 12.0019 63.5811 11.9148 63.2538 11.8442C62.9294 11.7724 62.5714 11.7378 62.1801 11.7378C61.6733 11.7378 61.2122 11.8083 60.8028 11.9508C60.392 12.0946 60.0397 12.2979 59.7486 12.5621C59.4576 12.8276 59.2334 13.154 59.0761 13.5398C58.9186 13.927 58.842 14.3599 58.842 14.8385C58.842 15.2672 58.9131 15.6654 59.0579 16.032C59.2 16.397 59.4103 16.7152 59.6859 16.9834C59.9603 17.2531 60.3043 17.462 60.7138 17.6141C61.1245 17.7649 61.5966 17.8409 62.1314 17.8409C62.4935 17.8409 62.8527 17.8091 63.2036 17.7455C63.5532 17.6833 63.8526 17.5975 64.1005 17.4882C64.1492 17.462 64.1841 17.4785 64.2008 17.5394L64.4807 18.6734C64.496 18.6901 64.4849 18.7122 64.4403 18.7371C64.23 18.8463 63.9028 18.9514 63.4572 19.051C63.0129 19.1533 62.4893 19.2032 61.8891 19.2032C61.1608 19.2032 60.5048 19.1022 59.9213 18.9003C59.3364 18.6997 58.8365 18.4093 58.4215 18.0304C58.0065 17.6514 57.6876 17.1978 57.4634 16.6668C57.2392 16.1385 57.125 15.5451 57.125 14.8896C57.125 14.2437 57.2448 13.6463 57.4829 13.0986C57.7182 12.5524 58.0553 12.0793 58.4911 11.6797C58.9284 11.28 59.452 10.9674 60.0662 10.7406C60.6817 10.5125 61.3641 10.4004 62.1174 10.4004C62.719 10.4004 63.2204 10.4474 63.6229 10.5442Z" fill="white"/>
<path d="M71.214 19.1789C71.1959 19.1789 71.175 19.1665 71.1485 19.1402L68.33 15.1683C68.1962 15.3108 68.0625 15.449 67.9289 15.5846C67.798 15.7188 67.6698 15.857 67.5446 15.9995V18.9771C67.5446 19.0268 67.518 19.0517 67.4665 19.0517H65.9931C65.943 19.0517 65.918 19.0268 65.918 18.9771V10.6141C65.918 10.5726 65.943 10.5519 65.9931 10.5519H67.4665C67.518 10.5519 67.5446 10.5726 67.5446 10.6141L67.5807 14.2721C67.6476 14.1628 67.7088 14.0812 67.759 14.026C67.8105 13.972 67.8648 13.9098 67.9233 13.8434L68.1141 13.6152L70.8199 10.5132C70.8366 10.4952 70.8575 10.4883 70.8825 10.4883L72.6623 10.5519C72.6958 10.5519 72.718 10.5643 72.7306 10.5892C72.7445 10.6141 72.7375 10.6404 72.7124 10.6652L69.5123 14.1712C70.0874 14.9608 70.6654 15.7519 71.2446 16.543C71.824 17.3327 72.4019 18.1265 72.9784 18.9259C72.9966 18.9521 72.9979 18.9798 72.9854 19.0075C72.9729 19.0379 72.9492 19.0517 72.9158 19.0517L71.214 19.1789Z" fill="white"/>
<path d="M39.2074 31.2351C39.1559 31.2351 39.1309 31.2102 39.1309 31.159V27.4886H35.0673V31.159C35.0673 31.2102 35.0422 31.2351 34.9907 31.2351H33.5048C33.4532 31.2351 33.4296 31.2102 33.4296 31.159V22.7975C33.4296 22.7546 33.4532 22.7339 33.5048 22.7339H34.9907C35.0422 22.7339 35.0673 22.7546 35.0673 22.7975V26.0904H39.1309V22.7975C39.1309 22.7546 39.1559 22.7339 39.2074 22.7339H40.6933C40.7449 22.7339 40.77 22.7546 40.77 22.7975V31.159C40.77 31.2102 40.7449 31.2351 40.6933 31.2351H39.2074Z" fill="white"/>
<path d="M44.1082 28.2205C44.2363 28.5912 44.4145 28.9148 44.6471 29.1928C44.881 29.4694 45.1665 29.6879 45.5049 29.8469C45.8433 30.0073 46.2249 30.0876 46.6483 30.0876C47.0786 30.0876 47.4671 30.0073 47.8096 29.8469C48.1536 29.6879 48.4419 29.4694 48.68 29.1928C48.9168 28.9148 49.1006 28.5843 49.2273 28.2025C49.3527 27.8195 49.4167 27.4046 49.4167 26.9592C49.4167 26.5651 49.3582 26.182 49.2384 25.8113C49.1201 25.4407 48.9447 25.1144 48.7121 24.828C48.4795 24.5432 48.1912 24.3122 47.8486 24.1407C47.5047 23.9678 47.1134 23.8821 46.6733 23.8821C46.2249 23.8821 45.8294 23.9664 45.4868 24.1352C45.1442 24.3012 44.8546 24.5293 44.622 24.8156C44.3895 25.1019 44.214 25.4351 44.0956 25.8183C43.9758 26.1999 43.9173 26.6052 43.9173 27.0353C43.9173 27.4557 43.98 27.8512 44.1082 28.2205ZM50.801 28.7627C50.574 29.3172 50.2551 29.7888 49.8484 30.176C49.4418 30.5633 48.9613 30.8607 48.4085 31.0708C47.8528 31.2811 47.2526 31.3862 46.6093 31.3862C45.9492 31.3862 45.3475 31.2769 44.8072 31.0584C44.2641 30.8399 43.8017 30.5398 43.416 30.1581C43.0303 29.7736 42.7323 29.32 42.5206 28.7944C42.3075 28.2689 42.2031 27.6992 42.2031 27.0851C42.2031 26.4212 42.3145 25.8141 42.5401 25.2623C42.7643 24.7132 43.0748 24.2375 43.4717 23.8378C43.87 23.4381 44.3477 23.1284 44.9019 22.9112C45.4562 22.6927 46.0592 22.582 46.7109 22.582C47.3891 22.582 48.0005 22.6927 48.5463 22.9112C49.0936 23.1284 49.5587 23.4299 49.9445 23.8129C50.3288 24.1947 50.6254 24.651 50.833 25.1807C51.0405 25.7104 51.145 26.2829 51.145 26.8956C51.145 27.5857 51.0307 28.208 50.801 28.7627Z" fill="white"/>
<path d="M64.8166 24.6884C64.2276 24.192 63.3655 23.9457 62.232 23.9457C61.9354 23.9457 61.686 23.954 61.4827 23.9707C61.2794 23.9872 61.1053 24.0121 60.9619 24.0467V29.9852C61.097 30.0032 61.253 30.0129 61.4312 30.0171C61.6094 30.0226 61.7988 30.0254 62.0021 30.0254C62.6052 30.0254 63.1357 29.9507 63.5966 29.8027C64.0576 29.6575 64.4434 29.4445 64.7525 29.168C65.0617 28.89 65.297 28.5525 65.4572 28.1569C65.6188 27.7614 65.6995 27.3216 65.6995 26.8334C65.6995 25.9013 65.4042 25.1863 64.8166 24.6884ZM67.0572 28.6244C66.8122 29.179 66.4682 29.6548 66.0295 30.0503C65.5714 30.4693 64.9754 30.7874 64.2373 31.0018C63.502 31.2175 62.6678 31.3226 61.7361 31.3226C61.2279 31.3226 60.7864 31.3157 60.4091 31.2991C60.033 31.2812 59.6919 31.2521 59.3869 31.2106C59.3437 31.2106 59.3242 31.1857 59.3242 31.1345V22.9113C59.3242 22.8601 59.3437 22.8338 59.3869 22.8338C59.7838 22.7854 60.2155 22.7425 60.6834 22.7094C61.1471 22.6762 61.6345 22.6582 62.1428 22.6582C63.8877 22.6582 65.1912 23.0164 66.0546 23.7314C66.478 24.0827 66.8122 24.5142 67.0572 25.0245C67.3037 25.532 67.4249 26.1143 67.4249 26.7712C67.4249 27.4516 67.3037 28.0698 67.0572 28.6244Z" fill="white"/>
<path d="M68.8774 31.2356C68.8258 31.2356 68.8008 31.2107 68.8008 31.1595V22.798C68.8008 22.7551 68.8258 22.7344 68.8774 22.7344H70.3632C70.4134 22.7344 70.4398 22.7551 70.4398 22.798V31.1595C70.4398 31.2107 70.4134 31.2356 70.3632 31.2356H68.8774Z" fill="white"/>
<path d="M78.0458 31.2356C78.0291 31.2356 78.0081 31.2217 77.9831 31.1982L75.3803 27.3259C75.0837 26.8792 74.7954 26.4297 74.5156 25.9761C74.237 25.5225 73.9863 25.0716 73.7663 24.6277C73.7928 25.1393 73.8095 25.6497 73.8179 26.1586C73.8248 26.6676 73.8304 27.2166 73.8304 27.8044V31.1595C73.8304 31.2107 73.8053 31.2356 73.7524 31.2356H72.3709C72.318 31.2356 72.293 31.2107 72.293 31.1595V22.798C72.293 22.7551 72.318 22.7344 72.3709 22.7344H74.1354C74.1604 22.7509 74.1772 22.7634 74.1855 22.7717L76.8008 26.5445C77.0974 26.9733 77.362 27.3881 77.5959 27.792C77.83 28.1972 78.0458 28.5955 78.2491 28.991C78.2073 28.5111 78.1822 28.0381 78.1739 27.5707C78.1656 27.1046 78.16 26.5985 78.16 26.0521V22.798C78.16 22.7551 78.1864 22.7344 78.238 22.7344H79.6222C79.6723 22.7344 79.6974 22.7551 79.6974 22.798V31.1595C79.6974 31.2107 79.6723 31.2356 79.6222 31.2356H78.0458Z" fill="white"/>
<path d="M89.1203 30.9079C89.0349 30.9245 88.96 30.9328 88.8931 30.9328C88.8327 30.9411 88.7771 30.9452 88.7256 30.9452C88.6772 30.9452 88.6168 30.9577 88.5491 30.9825C88.2269 31.0752 87.8539 31.1554 87.431 31.2218C87.0089 31.2909 86.5546 31.3228 86.0729 31.3228C84.506 31.3228 83.2735 30.9161 82.377 30.0989C81.9798 29.7296 81.6697 29.2815 81.4498 28.7504C81.229 28.2207 81.1211 27.6523 81.1211 27.048C81.1211 26.4339 81.2347 25.86 81.4691 25.3261C81.7019 24.7923 82.0402 24.3262 82.4857 23.9265C82.9296 23.5255 83.4717 23.2143 84.1105 22.9875C84.7485 22.7593 85.4751 22.6445 86.2904 22.6445C86.8736 22.6445 87.3859 22.6971 87.8306 22.7981C88.2761 22.899 88.6071 22.9944 88.8287 23.0885C88.8786 23.105 88.8955 23.1327 88.8786 23.1756L88.5242 24.3359C88.5153 24.3857 88.4847 24.4037 88.4347 24.3857C88.1633 24.2778 87.858 24.1824 87.5132 24.1022C87.17 24.022 86.7495 23.9833 86.2501 23.9833C85.7249 23.9833 85.2528 24.0552 84.8331 24.1976C84.4158 24.3401 84.0582 24.5433 83.7609 24.8033C83.4645 25.0633 83.2365 25.3759 83.0746 25.741C82.9143 26.1075 82.8337 26.5127 82.8337 26.9609C82.8337 27.4048 82.9086 27.8141 83.0633 28.1834C83.2155 28.5526 83.4355 28.8721 83.7239 29.1418C84.0106 29.4115 84.3586 29.6203 84.7719 29.7725C85.1803 29.9232 85.6443 29.9979 86.1631 29.9979C86.4917 29.9979 86.7777 29.9785 87.0186 29.937C87.2611 29.8941 87.4471 29.8485 87.5841 29.796V27.8183H85.9069C85.857 27.8183 85.8304 27.792 85.8304 27.7408V26.5943C85.8304 26.5432 85.857 26.5183 85.9069 26.5183H89.109C89.1589 26.5183 89.1839 26.5432 89.1839 26.5943V30.8456L89.1203 30.9079Z" fill="white"/>
<path d="M96.2502 29.759C96.1181 30.0702 95.9159 30.3467 95.6404 30.5847C95.3657 30.8253 95.012 31.0189 94.5803 31.1655C94.1493 31.3121 93.6361 31.3854 93.0433 31.3854C92.7984 31.3854 92.5543 31.3688 92.3134 31.3356C92.0726 31.3024 91.839 31.2567 91.6142 31.2043C91.3887 31.1489 91.184 31.0825 90.9988 31.0079C90.8127 30.9318 90.6508 30.8557 90.517 30.7796C90.4727 30.7561 90.4599 30.7257 90.4768 30.6925L90.8457 29.481C90.8626 29.4312 90.8973 29.4174 90.9488 29.4437C91.2179 29.611 91.5465 29.7535 91.9316 29.8669C92.3175 29.9803 92.7275 30.037 93.1585 30.037C93.674 30.037 94.0736 29.9305 94.3579 29.7216C94.6423 29.5115 94.7825 29.2376 94.7825 28.9015C94.7825 28.5903 94.656 28.3318 94.4022 28.1257C94.1493 27.9196 93.7385 27.7287 93.1697 27.5531C92.7895 27.4342 92.4447 27.2973 92.137 27.1424C91.8277 26.9847 91.5618 26.8063 91.3403 26.5989C91.1212 26.3942 90.9504 26.1619 90.8264 25.906C90.7047 25.6487 90.6435 25.357 90.6435 25.0278C90.6435 24.6751 90.7176 24.3515 90.865 24.0528C91.0125 23.754 91.2259 23.494 91.5006 23.2769C91.7761 23.0571 92.1048 22.8883 92.4907 22.7652C92.8757 22.6421 93.3091 22.5813 93.7924 22.5813C94.3088 22.5813 94.7518 22.6269 95.1192 22.7155C95.4889 22.8026 95.795 22.9104 96.0399 23.0363C96.0818 23.0529 96.0955 23.0833 96.0794 23.1248L95.6976 24.2851C95.6895 24.31 95.6726 24.328 95.646 24.3363C95.6226 24.3432 95.6001 24.3404 95.5816 24.3225C95.4398 24.2478 95.2102 24.1593 94.8912 24.0583C94.5738 23.9574 94.1992 23.9062 93.7675 23.9062C93.496 23.9062 93.2672 23.9352 93.0811 23.9933C92.8958 24.0542 92.7452 24.1316 92.6324 24.2284C92.5164 24.3252 92.4302 24.4345 92.3779 24.5562C92.3207 24.6779 92.2941 24.7982 92.2941 24.9158C92.2941 25.2255 92.4294 25.4773 92.6993 25.6654C92.9724 25.8548 93.4082 26.0415 94.0083 26.2268C94.8219 26.4883 95.4317 26.8132 95.8385 27.2046C96.2445 27.596 96.4467 28.1284 96.4467 28.8006C96.4467 29.127 96.3815 29.4479 96.2502 29.759Z" fill="white"/>
<path d="M58.163 29.8609H54.208V22.798C54.208 22.7537 54.1829 22.7344 54.1328 22.7344H52.6468C52.5954 22.7344 52.5703 22.7537 52.5703 22.798V31.1581C52.5703 31.2107 52.5954 31.2356 52.6468 31.2356H58.163V29.8609Z" fill="white"/>
</g>
<defs>
<clipPath id="clip0_4_53">
<rect width="96.6667" height="32" rx="5" fill="white"/>
</clipPath>
</defs>
</svg>
