<svg width="145" height="48" viewBox="0 0 145 48" fill="none" xmlns="http://www.w3.org/2000/svg">
<path d="M25.0496 11.4928L25.0479 11.472L2.94673 11.4704L29.1933 7.6272L4.35 7.656L32.8827 3.76001L32.8699 3.74561L5.70173 3.84L37.2296 0.0095993L37.2182 0L7.17267 0.0127991L5.29411 3.84L5.28123 3.8384L3.45906 7.7744H3.47517L1.68844 11.6528L1.71744 11.6512L0 15.4399L25.0496 11.4928Z" fill="#C22649"/>
<path d="M44.1147 9.76652C37.253 16.5681 27.6878 27.9666 19.5839 44.8017C28.221 25.6225 37.3158 12.7857 42.5664 6.35053L42.5374 6.32972C35.658 12.7266 24.335 25.2337 14.9922 44.8545C25.263 21.8898 36.4152 7.90892 40.9795 2.84492H40.9392C34.7236 8.05772 20.6375 21.6273 9.62725 45.141C23.2009 14.4753 38.3517 0.628926 38.8286 0.292926L38.848 0.238525L38.3372 0.588924C33.4845 4.36172 16.5969 18.8817 4.18652 46.7089L8.88775 46.749L8.91675 46.7505L14.0835 46.7985H14.1432L18.6172 46.8385H18.68L24.9956 46.8978C30.09 28.6561 38.8625 17.0418 44.097 9.79693L44.1147 9.76652Z" fill="#C22649"/>
<path d="M58.2099 26.3643C58.0135 26.8311 57.7106 27.2439 57.2971 27.6049C56.8835 27.9618 56.3529 28.2522 55.7054 28.4742C55.0577 28.694 54.2891 28.8061 53.4013 28.8061C53.0336 28.8061 52.6659 28.7811 52.3067 28.7293C51.9432 28.6775 51.5944 28.6131 51.2581 28.5301C50.9217 28.4492 50.6126 28.3496 50.3327 28.2377C50.0549 28.1235 49.8146 28.0116 49.6099 27.8975C49.5452 27.8601 49.5285 27.8144 49.5515 27.7646L50.1071 25.9495C50.1301 25.8727 50.1802 25.8541 50.2575 25.8914C50.6648 26.1445 51.1558 26.3561 51.7365 26.5262C52.313 26.6963 52.925 26.7813 53.5726 26.7813C54.3476 26.7813 54.9492 26.6237 55.3732 26.3084C55.7993 25.9931 56.0082 25.5823 56.0082 25.0782C56.0082 24.6115 55.8224 24.2235 55.438 23.9144C55.0577 23.6053 54.4416 23.3169 53.5914 23.0535C53.019 22.8751 52.501 22.6739 52.0393 22.4373C51.5755 22.2072 51.1767 21.9354 50.8486 21.6263C50.5186 21.3171 50.2617 20.9687 50.0778 20.5849C49.892 20.2011 49.8 19.7634 49.8 19.2697C49.8 18.7406 49.9129 18.2511 50.1322 17.8029C50.3557 17.3549 50.6732 16.967 51.0868 16.6392C51.4983 16.3115 51.9954 16.0563 52.5719 15.8737C53.1506 15.6932 53.8002 15.5999 54.5251 15.5999C55.2981 15.5999 55.9643 15.6662 56.5158 15.7991C57.0673 15.9297 57.5289 16.0915 57.8966 16.2824C57.9593 16.3073 57.9801 16.3488 57.953 16.4131L57.3827 18.1536C57.3702 18.1909 57.343 18.2179 57.3055 18.2304C57.2678 18.2427 57.2365 18.2366 57.2093 18.2117C56.9942 18.0955 56.6495 17.9648 56.1712 17.8113C55.6969 17.6619 55.133 17.5873 54.4875 17.5873C54.0802 17.5873 53.7376 17.6309 53.4598 17.72C53.1778 17.8051 52.9522 17.9233 52.783 18.0685C52.6117 18.2137 52.4842 18.3776 52.4007 18.5601C52.3193 18.7448 52.2775 18.9233 52.2775 19.0995C52.2775 19.5663 52.4801 19.9418 52.8874 20.226C53.2927 20.5081 53.9465 20.7902 54.8489 21.0683C56.0689 21.4583 56.9837 21.9479 57.5936 22.5329C58.2016 23.1219 58.5045 23.9186 58.5045 24.9267C58.5045 25.4184 58.4083 25.8997 58.2099 26.3643Z" fill="#C22649"/>
<path d="M65.9547 17.8519V28.4649C65.9547 28.5396 65.9171 28.5769 65.8398 28.5769H63.6109C63.5357 28.5769 63.4981 28.5396 63.4981 28.4649V17.8519H59.4791C59.4018 17.8519 59.3642 17.8124 59.3642 17.7378V15.9205C59.3642 15.8583 59.4018 15.8271 59.4791 15.8271H69.9946C70.0698 15.8271 70.1094 15.8583 70.1094 15.9205V17.7378C70.1094 17.8124 70.0698 17.8519 69.9946 17.8519H65.9547Z" fill="#C22649"/>
<path d="M73.7085 24.0563C73.8986 24.6122 74.1681 25.0976 74.5191 25.5125C74.8658 25.9295 75.2962 26.2573 75.8037 26.4959C76.3135 26.7385 76.8837 26.8568 77.5187 26.8568C78.1684 26.8568 78.7491 26.7385 79.2608 26.4959C79.7768 26.2573 80.2113 25.9295 80.5685 25.5125C80.9236 25.0976 81.1951 24.6018 81.3874 24.0272C81.5775 23.4546 81.6735 22.8343 81.6735 22.1643C81.6735 21.5709 81.5837 20.9964 81.4061 20.4425C81.2286 19.8885 80.9633 19.3969 80.6144 18.9675C80.2656 18.5381 79.8332 18.1958 79.3193 17.9365C78.8034 17.6772 78.2143 17.5485 77.5564 17.5485C76.8837 17.5485 76.2904 17.6751 75.7744 17.9262C75.2627 18.1813 74.8282 18.5173 74.4793 18.9488C74.1284 19.3783 73.8653 19.8782 73.6898 20.4529C73.5101 21.0254 73.4224 21.6353 73.4224 22.2783C73.4224 22.9091 73.5185 23.5023 73.7085 24.0563ZM83.7477 24.8694C83.4052 25.7034 82.9268 26.4087 82.319 26.9895C81.709 27.5703 80.9904 28.0185 80.1569 28.3338C79.3256 28.6471 78.4273 28.8047 77.4623 28.8047C76.4721 28.8047 75.5697 28.6409 74.7573 28.313C73.9425 27.9853 73.249 27.5352 72.6703 26.9605C72.0918 26.3858 71.6447 25.7054 71.3293 24.9171C71.0097 24.1309 70.851 23.2741 70.851 22.3531C70.851 21.3573 71.0201 20.4467 71.3543 19.6209C71.6907 18.7953 72.1607 18.0817 72.756 17.4822C73.3556 16.8847 74.0679 16.4201 74.8992 16.0922C75.7327 15.7645 76.6351 15.6006 77.6148 15.6006C78.63 15.6006 79.547 15.7645 80.3679 16.0922C81.1868 16.4201 81.8824 16.8723 82.4632 17.4449C83.0397 18.0194 83.4846 18.702 83.7938 19.4985C84.1071 20.291 84.2637 21.1499 84.2637 22.071C84.2637 23.1041 84.0903 24.0355 83.7477 24.8694Z" fill="#C22649"/>
<path d="M95.4359 15.8168C96.0396 15.962 96.4741 16.1032 96.7414 16.2443C96.8041 16.2691 96.8229 16.3127 96.7978 16.375L96.284 18.0967C96.2589 18.186 96.2046 18.2046 96.1315 18.1548C95.7868 18.0034 95.3732 17.8727 94.8823 17.7668C94.3956 17.6591 93.8588 17.6071 93.2717 17.6071C92.5115 17.6071 91.8199 17.713 91.2059 17.9267C90.5896 18.1423 90.0611 18.4474 89.6245 18.8436C89.1879 19.2419 88.8517 19.7315 88.6157 20.3102C88.3796 20.891 88.2647 21.5404 88.2647 22.2582C88.2647 22.9013 88.3712 23.4986 88.5885 24.0485C88.8015 24.596 89.117 25.0733 89.5305 25.4756C89.9421 25.8802 90.458 26.1935 91.0722 26.4216C91.6883 26.6478 92.3965 26.7618 93.1986 26.7618C93.7418 26.7618 94.2807 26.7142 94.8071 26.6188C95.3313 26.5254 95.7805 26.3968 96.1523 26.2328C96.2254 26.1935 96.2777 26.2183 96.3027 26.3096L96.7226 28.0106C96.7456 28.0356 96.7289 28.0688 96.6621 28.1062C96.3466 28.27 95.8558 28.4276 95.1873 28.577C94.5209 28.7305 93.7355 28.8053 92.8352 28.8053C91.7427 28.8053 90.7588 28.6538 89.8836 28.351C89.0062 28.0501 88.2563 27.6145 87.6339 27.0461C87.0114 26.4776 86.533 25.7972 86.1967 25.0007C85.8604 24.2082 85.6891 23.3182 85.6891 22.3349C85.6891 21.3661 85.8688 20.47 86.2259 19.6484C86.5789 18.8291 87.0845 18.1195 87.7383 17.52C88.3942 16.9205 89.1796 16.4516 90.1008 16.1114C91.0241 15.7692 92.0477 15.6011 93.1777 15.6011C94.0801 15.6011 94.8322 15.6716 95.4359 15.8168Z" fill="#C22649"/>
<path d="M106.819 28.7681C106.792 28.7681 106.76 28.7495 106.721 28.7101L102.493 22.7522C102.292 22.9659 102.092 23.1733 101.891 23.3767C101.695 23.5779 101.503 23.7853 101.315 23.999V28.4654C101.315 28.54 101.275 28.5773 101.198 28.5773H98.9876C98.9124 28.5773 98.8748 28.54 98.8748 28.4654V15.9209C98.8748 15.8587 98.9124 15.8276 98.9876 15.8276H101.198C101.275 15.8276 101.315 15.8587 101.315 15.9209L101.369 21.4079C101.469 21.244 101.561 21.1216 101.636 21.0387C101.714 20.9578 101.795 20.8645 101.883 20.7649L102.169 20.4225L106.228 15.7695C106.253 15.7425 106.284 15.7322 106.322 15.7322L108.991 15.8276C109.041 15.8276 109.075 15.8462 109.094 15.8836C109.115 15.9209 109.104 15.9603 109.067 15.9976L104.266 21.2565C105.129 22.441 105.996 23.6276 106.865 24.8143C107.734 25.9988 108.601 27.1895 109.466 28.3886C109.493 28.4279 109.495 28.4695 109.476 28.511C109.457 28.5566 109.422 28.5773 109.371 28.5773L106.819 28.7681Z" fill="#C22649"/>
<path d="M58.811 46.8521C58.7338 46.8521 58.6962 46.8148 58.6962 46.738V41.2324H52.6008V46.738C52.6008 46.8148 52.5632 46.8521 52.4859 46.8521H50.2571C50.1797 46.8521 50.1442 46.8148 50.1442 46.738V34.1957C50.1442 34.1314 50.1797 34.1003 50.2571 34.1003H52.4859C52.5632 34.1003 52.6008 34.1314 52.6008 34.1957V39.1351H58.6962V34.1957C58.6962 34.1314 58.7338 34.1003 58.811 34.1003H61.0399C61.1172 34.1003 61.1548 34.1314 61.1548 34.1957V46.738C61.1548 46.8148 61.1172 46.8521 61.0399 46.8521H58.811Z" fill="#C22649"/>
<path d="M66.1648 42.3305C66.357 42.8865 66.6244 43.3719 66.9732 43.7889C67.3241 44.2038 67.7523 44.5316 68.26 44.7701C68.7676 45.0107 69.3399 45.1311 69.975 45.1311C70.6204 45.1311 71.2032 45.0107 71.717 44.7701C72.233 44.5316 72.6654 44.2038 73.0226 43.7889C73.3777 43.3719 73.6535 42.8762 73.8435 42.3035C74.0316 41.729 74.1276 41.1066 74.1276 40.4386C74.1276 39.8474 74.0399 39.2727 73.8602 38.7167C73.6827 38.1608 73.4195 37.6713 73.0707 37.2418C72.7219 36.8145 72.2894 36.468 71.7755 36.2108C71.2596 35.9514 70.6726 35.8229 70.0125 35.8229C69.3398 35.8229 68.7467 35.9494 68.2328 36.2025C67.7189 36.4515 67.2845 36.7937 66.9356 37.2232C66.5868 37.6526 66.3235 38.1525 66.146 38.7272C65.9663 39.2997 65.8786 39.9075 65.8786 40.5527C65.8786 41.1833 65.9726 41.7766 66.1648 42.3305ZM76.204 43.1438C75.8635 43.9756 75.3851 44.683 74.7752 45.2638C74.1652 45.8447 73.4446 46.2908 72.6153 46.606C71.7818 46.9214 70.8814 47.079 69.9165 47.079C68.9264 47.079 68.0239 46.9151 67.2134 46.5874C66.3988 46.2596 65.7052 45.8094 65.1266 45.2369C64.548 44.6602 64.101 43.9798 63.7835 43.1914C63.4639 42.4031 63.3073 41.5485 63.3073 40.6274C63.3073 39.6316 63.4742 38.7209 63.8127 37.8932C64.149 37.0696 64.6148 36.356 65.2101 35.7564C65.8075 35.1569 66.5241 34.6923 67.3554 34.3666C68.1869 34.0388 69.0913 33.8728 70.069 33.8728C71.0863 33.8728 72.0033 34.0388 72.822 34.3666C73.643 34.6923 74.3407 35.1446 74.9193 35.7191C75.4958 36.2918 75.9407 36.9762 76.252 37.7708C76.5633 38.5653 76.72 39.4241 76.72 40.3432C76.72 41.3783 76.5486 42.3118 76.204 43.1438Z" fill="#C22649"/>
<path d="M97.2269 37.0317C96.3434 36.287 95.0504 35.9176 93.35 35.9176C92.9051 35.9176 92.5311 35.9301 92.2261 35.955C91.9212 35.9799 91.66 36.0172 91.4449 36.069V44.9769C91.6476 45.0039 91.8815 45.0184 92.1488 45.0246C92.4162 45.0329 92.7003 45.0371 93.0053 45.0371C93.9098 45.0371 94.7056 44.925 95.397 44.703C96.0885 44.4852 96.6671 44.1658 97.1309 43.751C97.5946 43.334 97.9476 42.8278 98.1878 42.2344C98.4302 41.6411 98.5513 40.9815 98.5513 40.2491C98.5513 38.851 98.1084 37.7784 97.2269 37.0317ZM100.588 42.9357C100.22 43.7675 99.7044 44.4812 99.0463 45.0744C98.3592 45.703 97.4651 46.1801 96.358 46.5017C95.2551 46.8252 94.0038 46.9829 92.6063 46.9829C91.8439 46.9829 91.1817 46.9726 90.6157 46.9476C90.0516 46.9208 89.5399 46.8772 89.0824 46.8149C89.0176 46.8149 88.9884 46.7776 88.9884 46.7008V34.366C88.9884 34.2892 89.0176 34.2497 89.0824 34.2497C89.6778 34.1771 90.3253 34.1128 91.0271 34.0631C91.7227 34.0133 92.4538 33.9863 93.2162 33.9863C95.8336 33.9863 97.7888 34.5236 99.084 35.5961C99.719 36.123 100.22 36.7703 100.588 37.5358C100.958 38.2971 101.139 39.1704 101.139 40.1559C101.139 41.1765 100.958 42.1037 100.588 42.9357Z" fill="#C22649"/>
<path d="M103.313 46.8521C103.236 46.8521 103.199 46.8148 103.199 46.738V34.1957C103.199 34.1314 103.236 34.1003 103.313 34.1003H105.542C105.618 34.1003 105.657 34.1314 105.657 34.1957V46.738C105.657 46.8148 105.618 46.8521 105.542 46.8521H103.313Z" fill="#C22649"/>
<path d="M117.066 46.8521C117.041 46.8521 117.009 46.8314 116.972 46.7961L113.068 40.9876C112.623 40.3175 112.19 39.6434 111.771 38.9629C111.353 38.2825 110.977 37.6061 110.647 36.9403C110.686 37.7078 110.711 38.4734 110.724 39.2367C110.734 40.0001 110.743 40.8237 110.743 41.7053V46.738C110.743 46.8148 110.705 46.8521 110.626 46.8521H108.554C108.474 46.8521 108.437 46.8148 108.437 46.738V34.1957C108.437 34.1314 108.474 34.1003 108.554 34.1003H111.2C111.238 34.1252 111.263 34.1439 111.275 34.1564L115.198 39.8155C115.643 40.4587 116.04 41.081 116.391 41.6867C116.742 42.2945 117.066 42.892 117.371 43.4853C117.308 42.7654 117.27 42.056 117.258 41.3548C117.245 40.6557 117.237 39.8965 117.237 39.077V34.1957C117.237 34.1314 117.277 34.1003 117.354 34.1003H119.43C119.506 34.1003 119.543 34.1314 119.543 34.1957V46.738C119.543 46.8148 119.506 46.8521 119.43 46.8521H117.066Z" fill="#C22649"/>
<path d="M133.678 46.3611C133.55 46.3859 133.438 46.3984 133.337 46.3984C133.247 46.4109 133.163 46.417 133.086 46.417C133.013 46.417 132.923 46.4357 132.821 46.4731C132.338 46.612 131.778 46.7324 131.144 46.832C130.511 46.9357 129.829 46.9834 129.107 46.9834C126.757 46.9834 124.908 46.3735 123.563 45.1475C122.967 44.5936 122.502 43.9215 122.172 43.1248C121.841 42.3303 121.679 41.4777 121.679 40.5712C121.679 39.6501 121.85 38.7892 122.201 37.9885C122.55 37.1877 123.058 36.4886 123.726 35.8891C124.392 35.2875 125.205 34.8207 126.163 34.4805C127.12 34.1383 128.21 33.9661 129.433 33.9661C130.308 33.9661 131.076 34.0449 131.743 34.1963C132.412 34.3478 132.908 34.4908 133.241 34.6319C133.315 34.6568 133.341 34.6983 133.315 34.7626L132.784 36.5031C132.771 36.5777 132.725 36.6047 132.65 36.5777C132.242 36.416 131.785 36.2728 131.267 36.1526C130.753 36.0322 130.122 35.9741 129.373 35.9741C128.585 35.9741 127.877 36.082 127.247 36.2956C126.621 36.5093 126.085 36.8143 125.639 37.2043C125.194 37.5943 124.852 38.0631 124.609 38.6108C124.369 39.1605 124.248 39.7683 124.248 40.4405C124.248 41.1064 124.36 41.7205 124.592 42.2744C124.821 42.8282 125.151 43.3075 125.583 43.712C126.013 44.1165 126.536 44.4297 127.155 44.6579C127.768 44.884 128.464 44.9961 129.242 44.9961C129.735 44.9961 130.164 44.9671 130.525 44.9048C130.889 44.8405 131.168 44.7721 131.374 44.6932V41.7267H128.858C128.783 41.7267 128.743 41.6872 128.743 41.6105V39.8907C128.743 39.814 128.783 39.7767 128.858 39.7767H133.661C133.736 39.7767 133.773 39.814 133.773 39.8907V46.2677L133.678 46.3611Z" fill="#C22649"/>
<path d="M144.375 44.6388C144.177 45.1056 143.874 45.5205 143.461 45.8774C143.049 46.2383 142.518 46.5287 141.87 46.7486C141.224 46.9685 140.454 47.0784 139.565 47.0784C139.198 47.0784 138.831 47.0536 138.47 47.0038C138.109 46.954 137.758 46.8855 137.421 46.8068C137.083 46.7237 136.776 46.6241 136.498 46.5122C136.219 46.398 135.976 46.2839 135.776 46.1698C135.709 46.1345 135.69 46.0889 135.715 46.0391L136.269 44.2218C136.294 44.1472 136.346 44.1264 136.423 44.1659C136.827 44.4168 137.32 44.6306 137.897 44.8007C138.476 44.9708 139.091 45.0558 139.738 45.0558C140.511 45.0558 141.11 44.8961 141.537 44.5828C141.963 44.2676 142.174 43.8568 142.174 43.3527C142.174 42.8859 141.984 42.498 141.603 42.1889C141.224 41.8798 140.608 41.5935 139.755 41.3301C139.184 41.1516 138.667 40.9463 138.206 40.714C137.742 40.4775 137.343 40.2099 137.011 39.8987C136.682 39.5916 136.426 39.2432 136.24 38.8594C136.057 38.4735 135.965 38.0358 135.965 37.542C135.965 37.0131 136.077 36.5277 136.298 36.0796C136.519 35.6314 136.839 35.2414 137.251 34.9157C137.664 34.586 138.157 34.3329 138.736 34.1482C139.314 33.9635 139.964 33.8723 140.689 33.8723C141.463 33.8723 142.128 33.9407 142.679 34.0736C143.233 34.2042 143.693 34.366 144.06 34.5548C144.123 34.5797 144.143 34.6253 144.119 34.6876L143.546 36.4281C143.534 36.4654 143.509 36.4924 143.469 36.5048C143.434 36.5152 143.4 36.511 143.372 36.4841C143.16 36.372 142.815 36.2393 142.337 36.0879C141.861 35.9364 141.299 35.8596 140.651 35.8596C140.244 35.8596 139.901 35.9032 139.622 35.9903C139.344 36.0816 139.118 36.1978 138.949 36.343C138.775 36.4882 138.645 36.6521 138.567 36.8346C138.481 37.0172 138.441 37.1976 138.441 37.374C138.441 37.8387 138.644 38.2163 139.049 38.4984C139.459 38.7826 140.112 39.0627 141.013 39.3406C142.233 39.7328 143.148 40.2202 143.758 40.8072C144.367 41.3944 144.67 42.193 144.67 43.2012C144.67 43.6908 144.572 44.1722 144.375 44.6388Z" fill="#C22649"/>
<path d="M87.2415 44.7909H81.3091V34.1965C81.3091 34.1301 81.2714 34.1011 81.1962 34.1011H78.9673C78.8901 34.1011 78.8525 34.1301 78.8525 34.1965V46.7367C78.8525 46.8156 78.8901 46.8529 78.9673 46.8529H87.2415V44.7909Z" fill="#C22649"/>
</svg>
