<svg width="32" height="32" viewBox="0 0 32 32" fill="none" xmlns="http://www.w3.org/2000/svg">
<path fill-rule="evenodd" clip-rule="evenodd" d="M10.227 2.6665H21.787C26.307 2.6665 29.3337 5.83984 29.3337 10.5598V21.4532C29.3337 26.1598 26.307 29.3332 21.787 29.3332H10.227C5.70699 29.3332 2.66699 26.1598 2.66699 21.4532V10.5598C2.66699 5.83984 5.70699 2.6665 10.227 2.6665ZM10.027 17.5998C9.14699 17.5998 8.42699 16.8798 8.42699 15.9998C8.42699 15.1198 9.14699 14.4012 10.027 14.4012C10.907 14.4012 11.627 15.1198 11.627 15.9998C11.627 16.8798 10.907 17.5998 10.027 17.5998ZM14.4003 15.9998C14.4003 16.8798 15.1203 17.5998 16.0003 17.5998C16.8803 17.5998 17.6003 16.8798 17.6003 15.9998C17.6003 15.1198 16.8803 14.4012 16.0003 14.4012C15.1203 14.4012 14.4003 15.1198 14.4003 15.9998ZM20.3737 15.9998C20.3737 16.8798 21.0937 17.5998 21.9737 17.5998C22.8537 17.5998 23.5603 16.8798 23.5603 15.9998C23.5603 15.1198 22.8537 14.4012 21.9737 14.4012C21.0937 14.4012 20.3737 15.1198 20.3737 15.9998Z" fill="white"/>
</svg>
