<svg width="50" height="49" viewBox="0 0 50 49" fill="none" xmlns="http://www.w3.org/2000/svg">
<path d="M40.0625 31.1559L34.7709 30.5638C33.5 30.4209 32.25 30.8497 31.3542 31.7276L27.5209 35.4843C21.625 32.5443 16.7917 27.828 13.7917 22.0297L17.6459 18.2526C18.5417 17.3747 18.9792 16.1497 18.8334 14.9043L18.2292 9.75926C17.9792 7.69717 16.2084 6.14551 14.0834 6.14551H10.4792C8.12502 6.14551 6.16669 8.06467 6.31252 10.3718C7.41669 27.8076 21.6459 41.7318 39.4167 42.8138C41.7709 42.9568 43.7292 41.0376 43.7292 38.7305V35.1984C43.75 33.1363 42.1667 31.4009 40.0625 31.1559V31.1559Z" fill="#47CE3B"/>
</svg>
